<?xml version="1.0" encoding="UTF-8"?>
<svg version="1.1" xmlns="http://www.w3.org/2000/svg" width="512" height="512">
<path d="M0 0 C1.28506113 -0.00644889 2.57012225 -0.01289778 3.89412463 -0.0195421 C5.31816689 -0.01659987 6.74220877 -0.01346444 8.16625023 -0.01015663 C9.68065473 -0.0138931 11.1950573 -0.01849461 12.7094568 -0.02388728 C16.87272456 -0.0361335 21.03591205 -0.03585489 25.19919372 -0.03349853 C29.68880502 -0.03309076 34.17839045 -0.04412581 38.66798973 -0.05361366 C47.46552892 -0.07023451 56.2630413 -0.07572374 65.06059487 -0.07683842 C72.21284576 -0.07778856 79.3650878 -0.08189719 86.51733589 -0.08823967 C106.7962878 -0.10585654 127.07521853 -0.11507807 147.35417815 -0.11357872 C148.44767554 -0.11349881 149.54117294 -0.1134189 150.66780663 -0.11333656 C152.3100566 -0.11321392 152.3100566 -0.11321392 153.98548333 -0.1130888 C171.72191936 -0.11227621 189.45827039 -0.13140603 207.19468184 -0.1596133 C225.40730917 -0.18834921 243.61989506 -0.20215314 261.83254564 -0.20042574 C272.05706391 -0.19976199 282.28149314 -0.2052475 292.50599098 -0.22678185 C301.21330981 -0.24500313 309.92049926 -0.24933333 318.62782891 -0.235763 C323.06870133 -0.22923759 327.50932559 -0.22910055 331.95017433 -0.2464695 C336.02039893 -0.26222473 340.09017913 -0.25931178 344.16039304 -0.24190123 C345.62813011 -0.23883666 347.09590054 -0.24244322 348.56359823 -0.25362138 C361.73268921 -0.34722754 371.96511899 1.99431269 381.66829491 11.25726891 C392.68388484 22.79637202 393.25878793 35.0362741 393.18587303 50.14008141 C393.19130132 52.03516742 393.19842793 53.93024922 393.20711327 55.8253231 C393.22526547 60.94518807 393.21831266 66.06472868 393.20559692 71.18459892 C393.19542714 76.55795184 393.20487361 81.93127811 393.21114159 87.30463219 C393.21840643 96.3260042 393.20886083 105.34724497 393.18977928 114.36859703 C393.16801284 124.77913303 393.17506503 135.18935562 393.1970849 145.59988403 C393.21527206 154.55904181 393.21778102 163.51810556 393.20733023 172.47727585 C393.20111352 177.81905182 393.20020934 183.16068076 393.21347618 188.50244713 C393.22508238 193.52592356 393.21692212 198.54899826 393.19389915 203.57243156 C393.18863747 205.40935412 393.19008198 207.24631084 393.19894981 209.08321953 C393.26105286 223.26111306 391.90762859 234.53131343 381.66829491 245.25726891 C374.62464575 251.98135742 366.38989635 256.46060124 356.48079491 256.50726891 C355.22266991 256.42476891 353.96454491 256.34226891 352.66829491 256.25726891 C352.71470116 256.83992516 352.76110741 257.42258141 352.80891991 258.02289391 C353.22068402 267.37582165 350.80560304 275.21932566 345.57698631 282.95429039 C345.03329399 283.76115791 344.48960167 284.56802544 343.92943382 285.39934349 C343.51325798 286.01245888 343.09708214 286.62557426 342.66829491 287.25726891 C343.23570396 287.26091454 343.80311302 287.26456017 344.38771629 287.26831627 C350.29285723 287.31012336 356.1972196 287.37945576 362.10188866 287.46478844 C364.30558549 287.493016 366.50938391 287.51422161 368.71321678 287.528265 C371.88106423 287.54966937 375.04768798 287.59630789 378.21516991 287.64789391 C379.20071861 287.64912254 380.18626732 287.65035118 381.20168114 287.65161705 C388.03938376 287.79806766 388.03938376 287.79806766 391.28841209 290.17035484 C392.77907508 292.42481118 393.21017495 293.57694613 393.16829491 296.25726891 C393.17860741 296.91726891 393.18891991 297.57726891 393.19954491 298.25726891 C392.39837213 301.27344876 391.13901377 302.35271373 388.66829491 304.25726891 C385.8373057 304.64924515 383.39594775 304.79499438 380.56599998 304.76063347 C379.73865664 304.76644723 378.91131329 304.77226099 378.05889893 304.77825093 C375.26824975 304.79292554 372.47846988 304.77893112 369.68782616 304.76520348 C367.67431753 304.76980944 365.66081226 304.7761603 363.64731407 304.78411245 C358.10001504 304.80087067 352.55298988 304.79252994 347.00568962 304.78016758 C341.02878489 304.77114592 335.05192844 304.78507245 329.07503319 304.79608727 C318.03829422 304.81287708 307.00163094 304.81137825 295.96489143 304.80044139 C285.76982511 304.79038792 275.57479095 304.78774827 265.37972069 304.79253197 C264.70403892 304.79283751 264.02835715 304.79314305 263.33220017 304.79345785 C260.58954009 304.79470316 257.84688002 304.79597675 255.10421997 304.7972969 C229.36433466 304.809539 203.62450523 304.79842941 177.88462853 304.77690931 C155.00519572 304.7579262 132.12585195 304.75962469 109.24641991 304.77875328 C83.55428259 304.80016155 57.86219467 304.80867087 32.17004967 304.79630423 C29.43232283 304.79502131 26.69459598 304.79376996 23.95686913 304.79253197 C23.28274738 304.79221566 22.60862564 304.79189935 21.91407597 304.79157345 C11.72422526 304.78701932 1.53441021 304.79235255 -8.65543556 304.80245018 C-20.23919193 304.81387171 -31.82286352 304.81067488 -43.40661049 304.7893272 C-49.3209728 304.77878819 -55.23515403 304.77474344 -61.14951515 304.78792381 C-66.55786147 304.79979455 -71.96585789 304.79337332 -77.37417221 304.7720136 C-79.33642224 304.7675249 -81.2987015 304.76986421 -83.26093292 304.77951676 C-85.91751906 304.79158807 -88.5728888 304.77930091 -91.22941017 304.76063347 C-92.38631387 304.77468047 -92.38631387 304.77468047 -93.56658936 304.78901124 C-97.08592069 304.73919605 -98.97825627 304.52972515 -101.8048954 302.35080862 C-103.46002766 300.08131482 -103.87506687 299.0324229 -103.83170509 296.25726891 C-103.84201759 295.59726891 -103.85233009 294.93726891 -103.86295509 294.25726891 C-103.08198074 291.31713015 -101.67782211 290.16251059 -99.33170509 288.25726891 C-96.49692726 287.73828697 -96.49692726 287.73828697 -93.18619728 287.71137047 C-91.94521278 287.69165184 -90.70422829 287.67193321 -89.4256382 287.65161705 C-88.07661928 287.64995403 -86.72759978 287.64872309 -85.37858009 287.64789391 C-83.99422204 287.63290929 -82.60988186 287.61618154 -81.22556496 287.59778404 C-77.58910226 287.55412872 -73.9528807 287.53411587 -70.31620216 287.51904869 C-66.60247487 287.49947072 -62.88900774 287.45750162 -59.17545509 287.41742516 C-51.89427507 287.34214304 -44.6132043 287.29183994 -37.33170509 287.25726891 C-37.74788094 286.64415352 -38.16405678 286.03103813 -38.59284401 285.39934349 C-39.13653633 284.59247597 -39.68022865 283.78560844 -40.2403965 282.95429039 C-40.78032234 282.15555 -41.32024818 281.35680962 -41.87653542 280.53386497 C-43.57154027 277.88204955 -44.7257634 275.30870661 -45.70670509 272.31976891 C-46.02381447 271.40324547 -46.34092384 270.48672203 -46.66764259 269.54242516 C-47.56720109 265.09225636 -47.46259673 260.78086149 -47.33170509 256.25726891 C-48.03142433 256.27821617 -48.73114357 256.29916344 -49.45206642 256.32074547 C-52.68262773 256.40489825 -55.91295735 256.45623961 -59.14420509 256.50726891 C-60.24441994 256.54078453 -61.34463478 256.57430016 -62.47818947 256.60883141 C-74.36462714 256.74908436 -83.68000151 253.51645664 -92.33170509 245.25726891 C-104.26216929 232.75981235 -103.93402384 219.11366661 -103.86295509 202.80805016 C-103.86565364 200.62333059 -103.86953907 198.4386122 -103.87455177 196.25389671 C-103.88042597 191.69232219 -103.87194843 187.1310625 -103.85318947 182.56952477 C-103.83036071 176.73555525 -103.84356147 170.90232034 -103.86747932 165.06837749 C-103.88195874 160.56352297 -103.87732211 156.05884163 -103.86696815 151.55398178 C-103.86430892 149.4030829 -103.86754221 147.25216807 -103.87688637 145.10128784 C-103.88709168 142.09337066 -103.87149653 139.08663193 -103.84928322 136.07880211 C-103.85738014 135.1991227 -103.86547707 134.31944328 -103.87381935 133.41310692 C-103.74749472 124.1386234 -99.43789737 117.99146478 -93.89420509 110.88226891 C-92.81851556 109.47584052 -91.74435118 108.0682446 -90.67154884 106.65961266 C-89.84372902 105.57462486 -89.84372902 105.57462486 -88.99918556 104.46771812 C-86.25941429 100.83581635 -83.60870479 97.14099348 -80.95670509 93.44476891 C-74.73772752 84.79580414 -68.42855361 76.21575587 -62.09781837 67.64838219 C-59.17214415 63.6873574 -56.25213231 59.72216297 -53.33170509 55.75726891 C-49.82281585 50.9934542 -46.31272707 46.23055092 -42.79654884 41.47211266 C-42.21340919 40.68223961 -41.63026955 39.89236656 -41.029459 39.07855797 C-39.86214952 37.49775217 -38.69386529 35.91766566 -37.52457619 34.33832359 C-34.58567699 30.35861593 -31.68540415 26.35765274 -28.84342384 22.30805016 C-28.27438332 21.50246666 -27.70534279 20.69688316 -27.11905861 19.86688805 C-26.05226183 18.35262885 -24.99341517 16.83271938 -23.9447422 15.30585289 C-17.73434411 6.51419086 -11.23816544 0.01426341 0 0 Z M48.66829491 256.25726891 C48.00829491 260.87726891 47.34829491 265.49726891 46.66829491 270.25726891 C44.23531416 276.71725226 41.05471225 282.16171768 37.66829491 288.25726891 C113.56829491 288.25726891 189.46829491 288.25726891 267.66829491 288.25726891 C265.68829491 284.95726891 263.70829491 281.65726891 261.66829491 278.25726891 C260.24251366 275.00726891 260.24251366 275.00726891 259.35579491 272.25726891 C258.89753319 270.89601891 258.89753319 270.89601891 258.43001366 269.50726891 C257.41329916 265.16928707 257.11163724 260.69069223 256.66829491 256.25726891 C188.02829491 256.25726891 119.38829491 256.25726891 48.66829491 256.25726891 Z " fill="#212121" transform="translate(111.33170509338379,199.74273109436035)"/>
<path d="M0 0 C1.01727076 0.00037972 2.03454153 0.00075944 3.08263868 0.00115067 C4.83603153 -0.00183591 4.83603153 -0.00183591 6.62484646 -0.00488281 C8.57567871 -0.00051355 8.57567871 -0.00051355 10.56592172 0.00394398 C11.9485931 0.0035084 13.3312644 0.00263374 14.71393526 0.00135481 C18.53121358 -0.00089274 22.34846411 0.00313467 26.16573888 0.00813287 C30.27550749 0.01243348 34.38527442 0.01099123 38.49504465 0.0102306 C45.62141221 0.00970512 52.74777065 0.01285446 59.87413591 0.01846844 C70.17778554 0.02658015 80.48143075 0.02919832 90.78508323 0.03045643 C107.50027551 0.03264747 124.21546292 0.03930896 140.93065256 0.04875904 C157.17218877 0.05793182 173.41372366 0.06501331 189.65526193 0.06926686 C190.65564273 0.06952958 191.65602352 0.0697923 192.68671889 0.07006299 C197.70511212 0.07136798 202.72350535 0.0726317 207.7418986 0.07387489 C249.40385968 0.08424912 291.06581541 0.10186884 332.7277717 0.1241985 C332.82066041 11.0513123 332.89163236 21.97833137 332.93502039 32.90576035 C332.95584987 37.98042444 332.98408249 43.05481738 333.02952951 48.12932545 C333.07315306 53.03118813 333.09694367 57.93279083 333.10728067 62.83483273 C333.11464248 64.70025493 333.12901821 66.56566373 333.15069193 68.43097454 C333.37549419 88.58918354 333.37549419 88.58918354 326.5793342 96.68279225 C319.59070152 102.58021737 314.8244478 104.43787698 305.7277717 104.1241985 C305.32687326 103.29017506 304.92597482 102.45615162 304.51292795 101.59685475 C297.40432618 87.52472471 288.1653403 79.64695071 273.3215217 74.2491985 C260.77548718 70.87862206 248.5416626 73.07675982 237.1652717 78.7491985 C226.21496147 85.06609114 221.89186507 92.67659653 215.7277717 104.1241985 C145.1077717 104.1241985 74.4877717 104.1241985 1.7277717 104.1241985 C-0.5822283 99.8341985 -2.8922283 95.5441985 -5.2722283 91.1241985 C-12.7226152 82.18373421 -23.15782701 75.29805067 -34.86988455 73.335136 C-50.04013352 72.00311414 -62.57341996 74.46724454 -74.72144705 84.05779225 C-81.00570231 89.8725955 -84.60311368 96.49102436 -88.2722283 104.1241985 C-92.27197811 104.24130829 -96.27128111 104.31175339 -100.2722283 104.3741985 C-101.39757986 104.40771412 -102.52293143 104.44122975 -103.68238455 104.475761 C-112.02320447 104.57331445 -117.41098129 103.49512843 -123.7331658 97.975761 C-124.36480643 97.24099537 -124.99644705 96.50622975 -125.6472283 95.7491985 C-126.29433768 95.01958912 -126.94144705 94.28997975 -127.6081658 93.538261 C-131.79528349 87.46399168 -131.52214378 81.34055445 -131.3972283 74.2491985 C-131.38820486 73.27466725 -131.37918143 72.300136 -131.36988455 71.2960735 C-131.34644453 68.90519122 -131.31363272 66.51482588 -131.2722283 64.1241985 C-130.69207716 64.12273194 -130.11192602 64.12126538 -129.51419455 64.11975437 C-115.37447495 64.08264489 -101.23498822 64.02357557 -87.09546286 63.94029576 C-80.25757096 63.90054684 -73.41979346 63.86813343 -66.58179861 63.8532024 C-59.98104365 63.83876854 -53.38060716 63.80360989 -46.77999502 63.75588948 C-44.26349605 63.74106818 -41.74694644 63.73315706 -39.23040396 63.73231465 C-35.70164445 63.72994564 -32.17386541 63.70286869 -28.64527518 63.67009693 C-27.0894422 63.67764248 -27.0894422 63.67764248 -25.50217825 63.68534046 C-19.33062737 63.59684051 -14.35902588 62.82312229 -9.2722283 59.1241985 C-5.67090701 54.59946149 -4.1661241 51.02833301 -4.08277518 45.30144459 C-4.06605765 44.32388203 -4.04934012 43.34631947 -4.032116 42.3391338 C-4.01854056 41.28593952 -4.00496512 40.23274525 -3.9909783 39.147636 C-3.97256888 38.06664631 -3.95415945 36.98565663 -3.93519217 35.87190968 C-3.85637993 31.23800919 -3.78858273 26.6039628 -3.71998221 21.96990162 C-3.66840823 18.59156977 -3.61111216 15.213369 -3.5534783 11.835136 C-3.53990286 10.77789326 -3.52632742 9.72065052 -3.51234061 8.63137013 C-3.49562308 7.66011189 -3.47890555 6.68885365 -3.46168143 5.68816334 C-3.44288931 4.39934757 -3.44288931 4.39934757 -3.42371756 3.08449513 C-3.20339811 0.23352414 -2.86214391 0.15644289 0 0 Z " fill="#FEC139" transform="translate(155.27222830057144,335.8758015036583)"/>
<path d="M0 0 C2.44225447 1.66159248 4.74768159 3.38773224 7.0390625 5.25 C7.86148438 5.86875 8.68390625 6.4875 9.53125 7.125 C18.98433098 15.13508731 26.08701755 27.90283809 27.23193359 40.34619141 C28.70717621 81.64404369 3.42536361 120.52684041 -18.5859375 153.9375 C-18.99996826 154.5680127 -19.41399902 155.19852539 -19.84057617 155.84814453 C-22.7146287 160.1268456 -22.7146287 160.1268456 -24.9609375 161.25 C-32.09820622 161.95202643 -32.09820622 161.95202643 -35.3515625 159.3046875 C-38.76519314 155.59793769 -41.29391867 151.29172789 -43.8984375 147 C-44.45837402 146.08395996 -45.01831055 145.16791992 -45.59521484 144.22412109 C-59.65337703 121.03302803 -73.4033288 97.09747118 -81.9609375 71.25 C-82.46753906 69.81140625 -82.46753906 69.81140625 -82.984375 68.34375 C-87.44708577 53.76829098 -86.565445 36.97086434 -79.9609375 23.25 C-77.86177417 19.69360499 -75.56316981 16.45185184 -72.9609375 13.25 C-72.3421875 12.42757813 -71.7234375 11.60515625 -71.0859375 10.7578125 C-54.25015514 -9.11088653 -22.01325939 -13.01047521 0 0 Z " fill="#BF2A34" transform="translate(284.9609375,14.75)"/>
<path d="M0 0 C1.1471196 0.00990463 2.2942392 0.01980927 3.47612 0.03001404 C7.13512745 0.06915722 10.79112019 0.15698899 14.44921875 0.24609375 C16.93159726 0.28120725 19.41402286 0.31314616 21.89648438 0.34179688 C27.97758873 0.41891923 34.05693839 0.53601072 40.13671875 0.68359375 C40.16004713 18.26813493 40.17769762 35.85267129 40.18853092 53.43722439 C40.19369401 61.60146539 40.20073695 69.7656968 40.2121582 77.92993164 C40.22210465 85.04330659 40.22857208 92.1566746 40.23080724 99.27005631 C40.23211442 103.03885099 40.23520069 106.80762578 40.24244881 110.57641411 C40.25046191 114.77678191 40.25070991 118.97711483 40.25024414 123.17749023 C40.25383942 124.43624466 40.25743469 125.69499908 40.26113892 126.99189758 C40.25976425 128.12918304 40.25838959 129.26646851 40.25697327 130.43821716 C40.25789506 131.43283179 40.25881685 132.42744642 40.25976658 133.45220089 C40.13671875 135.68359375 40.13671875 135.68359375 39.13671875 136.68359375 C37.69457876 136.77917411 36.24777796 136.80547769 34.80247498 136.80384827 C33.86712921 136.80522293 32.93178345 136.8065976 31.96809387 136.80801392 C30.93375717 136.80441864 29.89942047 136.80082336 28.83374023 136.79711914 C27.75094788 136.79726517 26.66815552 136.79741119 25.55255127 136.79756165 C21.95428501 136.79686198 18.35606978 136.78906708 14.7578125 136.78125 C12.27059457 136.77938601 9.78337627 136.77796202 7.29615784 136.77696228 C1.40650684 136.77352725 -4.48312515 136.76563652 -10.37276834 136.75561279 C-17.73353499 136.74335621 -25.09430389 136.73797166 -32.45507812 136.73242188 C-45.59115523 136.7216819 -58.72721708 136.70479464 -71.86328125 136.68359375 C-72.22306773 129.34258588 -72.46533744 122.00390115 -72.63232422 114.65600586 C-72.70203412 112.16588456 -72.79704965 109.67632119 -72.91943359 107.18823242 C-73.70012227 90.88889606 -72.61484695 80.18076415 -61.52978516 67.7277832 C-60.92116135 67.07044693 -60.31253754 66.41311066 -59.68547058 65.7358551 C-56.61020579 62.27230334 -54.01443719 58.47470487 -51.36328125 54.68359375 C-50.29119472 53.19117433 -49.21722203 51.70010643 -48.140625 50.2109375 C-47.60421387 49.46827637 -47.06780273 48.72561523 -46.51513672 47.96044922 C-41.93957265 41.65366375 -37.2993543 35.39399657 -32.66894531 29.12744141 C-29.54388768 24.89788126 -26.42204074 20.66595714 -23.30078125 16.43359375 C-22.7291626 15.65959229 -22.15754395 14.88559082 -21.56860352 14.08813477 C-20.7534729 12.98296509 -20.7534729 12.98296509 -19.921875 11.85546875 C-19.45064209 11.21706055 -18.97940918 10.57865234 -18.49389648 9.92089844 C-16.87619718 7.84058525 -16.87619718 7.84058525 -16.02735996 5.95788956 C-12.27173782 -0.90206863 -7.20528601 -0.2341784 0 0 Z " fill="#65A3FE" transform="translate(95.86328125,247.31640625)"/>
<path d="M0 0 C1.01727076 0.00037972 2.03454153 0.00075944 3.08263868 0.00115067 C4.83603153 -0.00183591 4.83603153 -0.00183591 6.62484646 -0.00488281 C8.57567871 -0.00051355 8.57567871 -0.00051355 10.56592172 0.00394398 C11.9485931 0.0035084 13.3312644 0.00263374 14.71393526 0.00135481 C18.53121358 -0.00089274 22.34846411 0.00313467 26.16573888 0.00813287 C30.27550749 0.01243348 34.38527442 0.01099123 38.49504465 0.0102306 C45.62141221 0.00970512 52.74777065 0.01285446 59.87413591 0.01846844 C70.17778554 0.02658015 80.48143075 0.02919832 90.78508323 0.03045643 C107.50027551 0.03264747 124.21546292 0.03930896 140.93065256 0.04875904 C157.17218877 0.05793182 173.41372366 0.06501331 189.65526193 0.06926686 C190.65564273 0.06952958 191.65602352 0.0697923 192.68671889 0.07006299 C197.70511212 0.07136798 202.72350535 0.0726317 207.7418986 0.07387489 C249.40385972 0.08424912 291.06581535 0.10194295 332.7277717 0.1241985 C332.7277717 6.3941985 332.7277717 12.6641985 332.7277717 19.1241985 C331.0777717 18.4641985 329.4277717 17.8041985 327.7277717 17.1241985 C324.14346225 16.88336975 324.14346225 16.88336975 320.4152717 16.9991985 C319.16101389 17.01724537 317.90675607 17.03529225 316.61449045 17.053886 C315.18556467 17.08869068 315.18556467 17.08869068 313.7277717 17.1241985 C314.2124592 17.72361256 314.6971467 18.32302662 315.1965217 18.94060475 C317.28751332 21.92240147 317.31120809 23.55065061 316.7277717 27.1241985 C314.74725071 29.75858267 313.14388628 31.77177407 309.84202951 32.59349781 C307.58125792 32.78561324 305.37154807 32.81733823 303.1027717 32.788261 C301.8659968 32.79543644 301.8659968 32.79543644 300.60423654 32.80275685 C298.86609857 32.80614972 297.12789626 32.79699003 295.38988107 32.77605397 C292.73543344 32.74927579 290.08521345 32.77581845 287.4308967 32.80779225 C285.73817907 32.80448803 284.04546406 32.79808156 282.3527717 32.788261 C281.56305979 32.79838215 280.77334787 32.80850331 279.95970529 32.81893116 C275.75027523 32.72979176 274.15522207 32.4581788 270.7199592 29.77410084 C268.7277717 27.1241985 268.7277717 27.1241985 268.2277717 24.0616985 C268.77236821 20.86219397 269.72724231 19.59825745 271.7277717 17.1241985 C244.81519682 17.07743164 217.90262805 17.04218669 190.99002069 17.02057415 C178.49341084 17.01027136 165.99682626 16.99623008 153.50023264 16.97331959 C142.60538435 16.9533552 131.71055438 16.94047481 120.81568831 16.93602151 C115.04953058 16.9334193 109.28342524 16.92732372 103.51728433 16.91273838 C98.08369152 16.89910631 92.65017241 16.8949872 87.21656412 16.89798313 C85.2284797 16.89743548 83.24039266 16.89349172 81.25232309 16.88578755 C62.22969844 16.81572216 46.05966399 18.36093324 30.8215217 30.9835735 C15.19684885 46.95805245 13.49584511 65.1031946 13.1027717 86.3741985 C13.06449685 88.10208071 13.02543999 89.82994578 12.9855842 91.55779225 C12.89064153 95.74645158 12.80624366 99.93519956 12.7277717 104.1241985 C9.0977717 104.1241985 5.4677717 104.1241985 1.7277717 104.1241985 C1.32687326 103.29017506 0.92597482 102.45615162 0.51292795 101.59685475 C-6.59567382 87.52472471 -15.8346597 79.64695071 -30.6784783 74.2491985 C-43.22451282 70.87862206 -55.4583374 73.07675982 -66.8347283 78.7491985 C-77.54429331 84.92721272 -83.0544729 93.26925398 -88.2722283 104.1241985 C-92.27197811 104.24130829 -96.27128111 104.31175339 -100.2722283 104.3741985 C-101.39757986 104.40771412 -102.52293143 104.44122975 -103.68238455 104.475761 C-112.02320447 104.57331445 -117.41098129 103.49512843 -123.7331658 97.975761 C-124.36480643 97.24099537 -124.99644705 96.50622975 -125.6472283 95.7491985 C-126.29433768 95.01958912 -126.94144705 94.28997975 -127.6081658 93.538261 C-131.79528349 87.46399168 -131.52214378 81.34055445 -131.3972283 74.2491985 C-131.38820486 73.27466725 -131.37918143 72.300136 -131.36988455 71.2960735 C-131.34644453 68.90519122 -131.31363272 66.51482588 -131.2722283 64.1241985 C-130.69207716 64.12273194 -130.11192602 64.12126538 -129.51419455 64.11975437 C-115.37447495 64.08264489 -101.23498822 64.02357557 -87.09546286 63.94029576 C-80.25757096 63.90054684 -73.41979346 63.86813343 -66.58179861 63.8532024 C-59.98104365 63.83876854 -53.38060716 63.80360989 -46.77999502 63.75588948 C-44.26349605 63.74106818 -41.74694644 63.73315706 -39.23040396 63.73231465 C-35.70164445 63.72994564 -32.17386541 63.70286869 -28.64527518 63.67009693 C-27.0894422 63.67764248 -27.0894422 63.67764248 -25.50217825 63.68534046 C-19.33062737 63.59684051 -14.35902588 62.82312229 -9.2722283 59.1241985 C-5.67090701 54.59946149 -4.1661241 51.02833301 -4.08277518 45.30144459 C-4.06605765 44.32388203 -4.04934012 43.34631947 -4.032116 42.3391338 C-4.01854056 41.28593952 -4.00496512 40.23274525 -3.9909783 39.147636 C-3.97256888 38.06664631 -3.95415945 36.98565663 -3.93519217 35.87190968 C-3.85637993 31.23800919 -3.78858273 26.6039628 -3.71998221 21.96990162 C-3.66840823 18.59156977 -3.61111216 15.213369 -3.5534783 11.835136 C-3.53990286 10.77789326 -3.52632742 9.72065052 -3.51234061 8.63137013 C-3.49562308 7.66011189 -3.47890555 6.68885365 -3.46168143 5.68816334 C-3.44288931 4.39934757 -3.44288931 4.39934757 -3.42371756 3.08449513 C-3.20339811 0.23352414 -2.86214391 0.15644289 0 0 Z " fill="#F3AC1C" transform="translate(155.27222830057144,335.8758015036583)"/>
<path d="M0 0 C2.44225447 1.66159248 4.74768159 3.38773224 7.0390625 5.25 C7.86148438 5.86875 8.68390625 6.4875 9.53125 7.125 C18.98433098 15.13508731 26.08701755 27.90283809 27.23193359 40.34619141 C28.70717621 81.64404369 3.42536361 120.52684041 -18.5859375 153.9375 C-18.99996826 154.5680127 -19.41399902 155.19852539 -19.84057617 155.84814453 C-22.7146287 160.1268456 -22.7146287 160.1268456 -24.9609375 161.25 C-32.09820622 161.95202643 -32.09820622 161.95202643 -35.3515625 159.3046875 C-38.76519314 155.59793769 -41.29391867 151.29172789 -43.8984375 147 C-44.45837402 146.08395996 -45.01831055 145.16791992 -45.59521484 144.22412109 C-59.65337703 121.03302803 -73.4033288 97.09747118 -81.9609375 71.25 C-82.46753906 69.81140625 -82.46753906 69.81140625 -82.984375 68.34375 C-87.44708577 53.76829098 -86.565445 36.97086434 -79.9609375 23.25 C-77.86177417 19.69360499 -75.56316981 16.45185184 -72.9609375 13.25 C-72.3421875 12.42757813 -71.7234375 11.60515625 -71.0859375 10.7578125 C-54.25015514 -9.11088653 -22.01325939 -13.01047521 0 0 Z M-60.2109375 23.625 C-67.17035502 32.19189168 -70.08974847 42.13606022 -69.23779297 53.11328125 C-66.27864145 75.95145943 -53.04601218 97.58030181 -41.9609375 117.25 C-41.3424292 118.35456543 -41.3424292 118.35456543 -40.71142578 119.48144531 C-37.31641522 125.54098555 -33.86247187 131.5003704 -29.9609375 137.25 C-26.42499626 136.07135292 -26.21841716 135.46864666 -24.46484375 132.33203125 C-23.99481934 131.50147217 -23.52479492 130.67091309 -23.04052734 129.81518555 C-22.5398877 128.90679932 -22.03924805 127.99841309 -21.5234375 127.0625 C-20.9970166 126.11995361 -20.4705957 125.17740723 -19.92822266 124.20629883 C-18.81964432 122.21695253 -17.71524383 120.22527313 -16.61474609 118.23144531 C-15.04959107 115.40982247 -13.45691989 112.6058249 -11.85546875 109.8046875 C7.47137062 76.34797363 7.47137062 76.34797363 9.8515625 39.125 C7.07943097 29.15822011 2.22544443 20.85872279 -6.8671875 15.5546875 C-26.11971476 5.69015002 -45.18542686 7.17916746 -60.2109375 23.625 Z " fill="#212020" transform="translate(284.9609375,14.75)"/>
<path d="M0 0 C1.87551775 -0.00967334 1.87551775 -0.00967334 3.78892475 -0.0195421 C5.18416831 -0.01659952 6.57941146 -0.01346406 7.9746542 -0.01015663 C9.45092214 -0.01389107 10.9271881 -0.01849176 12.40345091 -0.02388728 C16.47055427 -0.03615896 20.53757563 -0.03585191 24.60469329 -0.03349853 C28.98729885 -0.03309139 33.36987775 -0.04411982 37.75247097 -0.05361366 C46.34407248 -0.07024905 54.93564655 -0.07572441 63.52726281 -0.07683842 C70.51175937 -0.07778799 77.49624686 -0.08189375 84.48074055 -0.08823967 C104.27853677 -0.10586146 124.07631129 -0.11507744 143.87411541 -0.11357872 C145.47612737 -0.11345885 145.47612737 -0.11345885 147.1105032 -0.11333656 C148.17981429 -0.1132548 149.24912539 -0.11317304 150.35083985 -0.1130888 C167.67098852 -0.11227634 184.99105013 -0.13140154 202.31117363 -0.1596133 C220.09093821 -0.18834528 237.87066035 -0.20215332 255.65044874 -0.20042574 C265.63407402 -0.1997618 275.61760812 -0.20525568 285.6012125 -0.22678185 C294.10439362 -0.24499809 302.60744227 -0.24933757 311.11063445 -0.235763 C315.44808263 -0.22923469 319.78527671 -0.22911094 324.12270069 -0.2464695 C328.09735133 -0.26221224 332.07154665 -0.25932453 336.04618626 -0.24190123 C337.4803182 -0.23883388 338.91448422 -0.24245379 340.34857596 -0.25362138 C349.66528382 -0.32133851 358.04016031 0.20333438 365.52480984 6.25726891 C366.31178249 7.24726891 366.31178249 7.24726891 367.11465359 8.25726891 C367.93643093 9.24726891 367.93643093 9.24726891 368.77480984 10.25726891 C370.05215359 12.25726891 370.05215359 12.25726891 371.05215359 16.25726891 C242.68215359 16.25726891 114.31215359 16.25726891 -17.94784641 16.25726891 C-16.29958943 12.96075493 -14.60102008 10.14463742 -12.51034641 7.13226891 C-11.91351048 6.26344078 -11.31667454 5.39461266 -10.70175266 4.49945641 C-7.45916836 0.35414819 -5.02506724 0.00653098 0 0 Z " fill="#FEC138" transform="translate(114.94784641265869,215.74273109436035)"/>
<path d="M0 0 C23.76 0 47.52 0 72 0 C72 23.76 72 47.52 72 72 C48.24 72 24.48 72 0 72 C0 48.24 0 24.48 0 0 Z " fill="#66A4FE" transform="translate(416,248)"/>
<path d="M0 0 C23.76 0 47.52 0 72 0 C72 23.76 72 47.52 72 72 C48.24 72 24.48 72 0 72 C0 48.24 0 24.48 0 0 Z " fill="#66A4FE" transform="translate(328,248)"/>
<path d="M0 0 C23.76 0 47.52 0 72 0 C72 23.76 72 47.52 72 72 C48.24 72 24.48 72 0 72 C0 48.24 0 24.48 0 0 Z " fill="#66A4FE" transform="translate(240,248)"/>
<path d="M0 0 C23.76 0 47.52 0 72 0 C72 23.76 72 47.52 72 72 C48.24 72 24.48 72 0 72 C0 48.24 0 24.48 0 0 Z " fill="#66A4FE" transform="translate(152,248)"/>
<path d="M0 0 C9.57 0 19.14 0 29 0 C29.02254651 17.58454416 29.04097887 35.16907605 29.05181217 52.75363064 C29.05697526 60.91787164 29.0640182 69.08210305 29.07543945 77.24633789 C29.0853859 84.35971284 29.09185333 91.47308085 29.09408849 98.58646256 C29.09539567 102.35525724 29.09848194 106.12403203 29.10573006 109.89282036 C29.11374316 114.09318816 29.11399116 118.29352108 29.11352539 122.49389648 C29.11712067 123.75265091 29.12071594 125.01140533 29.12442017 126.30830383 C29.1230455 127.44558929 29.12167084 128.58287476 29.12025452 129.75462341 C29.12117631 130.74923804 29.1220981 131.74385267 29.12304783 132.76860714 C29 135 29 135 28 136 C26.55786001 136.09558036 25.11105921 136.12188394 23.66575623 136.12025452 C22.73041046 136.12162918 21.7950647 136.12300385 20.83137512 136.12442017 C19.79703842 136.12082489 18.76270172 136.11722961 17.69702148 136.11352539 C16.61422913 136.11367142 15.53143677 136.11381744 14.41583252 136.1139679 C10.81756626 136.11326823 7.21935103 136.10547333 3.62109375 136.09765625 C1.13387582 136.09579226 -1.35334248 136.09436827 -3.84056091 136.09336853 C-9.73021191 136.0899335 -15.6198439 136.08204277 -21.50948709 136.07201904 C-28.87025374 136.05976246 -36.23102264 136.05437791 -43.59179688 136.04882812 C-56.72787398 136.03808815 -69.86393583 136.02120089 -83 136 C-83 133.36 -83 130.72 -83 128 C-82.44671021 127.99635437 -81.89342041 127.99270874 -81.32336426 127.98895264 C-75.4812861 127.94662307 -69.63995727 127.87693969 -63.79833984 127.79248047 C-61.62816929 127.76453009 -59.45790184 127.7431889 -57.28759766 127.72900391 C-40.32832807 127.61161164 -24.29204547 127.30676356 -10 117 C-10.48855469 116.27941406 -10.97710937 115.55882812 -11.48046875 114.81640625 C-13.08631746 111.84001314 -13.37944667 110.26938409 -13.3125 106.9375 C-13.30863281 106.10089844 -13.30476563 105.26429688 -13.30078125 104.40234375 C-12.97530337 101.80274769 -12.41365359 100.19849137 -11 98 C-7.2762882 95.51752547 -4.13234385 95.55677028 0.1875 95.375 C1.54062578 95.31103351 2.89371705 95.24633454 4.2467804 95.18106079 C5.48534286 95.12131073 6.72390533 95.06156067 8 95 C11.09409007 84.34248078 12.59138768 74.63866604 12.49609375 63.46484375 C12.49624939 62.04716416 12.49774912 60.62948417 12.50050354 59.21180725 C12.50187097 56.27650577 12.48959934 53.34170289 12.46655273 50.40649414 C12.43793379 46.66100258 12.44099127 42.91632169 12.45364285 39.17076778 C12.46061548 36.25809379 12.45279672 33.34560509 12.44038582 30.43295479 C12.4359033 29.05157749 12.43550621 27.67018013 12.43945122 26.28880119 C12.65966387 14.98292434 12.65966387 14.98292434 7.5 5.29296875 C5.03073805 3.47317414 2.55278943 1.70185962 0 0 Z " fill="#588DDD" transform="translate(107,248)"/>
<path d="M0 0 C7.4677988 5.37332434 12.7962517 12.10727813 14.34375 21.3125 C15.40538056 31.00198525 14.25688748 39.35316708 8.33984375 47.37109375 C2.18568379 54.67111194 -4.719973 58.81724912 -14.30078125 59.87890625 C-24.18133398 60.25892751 -31.99315053 57.3782143 -39.66015625 51.1796875 C-46.6829839 44.67416635 -49.44637055 36.52893616 -49.84765625 27.05859375 C-49.55254654 17.96151617 -45.55393299 10.15910209 -39.41015625 3.55859375 C-28.49189365 -6.30637764 -12.65337913 -7.56741799 0 0 Z " fill="#212121" transform="translate(433.41015625,428.44140625)"/>
<path d="M0 0 C7.4677988 5.37332434 12.7962517 12.10727813 14.34375 21.3125 C15.40538056 31.00198525 14.25688748 39.35316708 8.33984375 47.37109375 C2.18568379 54.67111194 -4.719973 58.81724912 -14.30078125 59.87890625 C-24.18133398 60.25892751 -31.99315053 57.3782143 -39.66015625 51.1796875 C-46.6829839 44.67416635 -49.44637055 36.52893616 -49.84765625 27.05859375 C-49.55254654 17.96151617 -45.55393299 10.15910209 -39.41015625 3.55859375 C-28.49189365 -6.30637764 -12.65337913 -7.56741799 0 0 Z " fill="#212121" transform="translate(129.41015625,428.44140625)"/>
<path d="M0 0 C12.57030066 -0.09296032 25.14051861 -0.16389686 37.7110939 -0.20724869 C43.54905652 -0.22806258 49.38678276 -0.25626666 55.22460938 -0.30175781 C60.8656418 -0.34543695 66.50644783 -0.36918365 72.14763641 -0.37950897 C74.29247345 -0.38686085 76.43729905 -0.40121672 78.58203888 -0.42292023 C100.19022432 -0.63275054 100.19022432 -0.63275054 110 4 C110.97406799 4.45542175 111.94813599 4.91084351 112.95172119 5.38006592 C126.34811254 11.93190726 136.02403465 22.9502155 141 37 C141 37.99 141 38.98 141 40 C138.36 40 135.72 40 133 40 C132.59910156 39.16597656 132.19820312 38.33195312 131.78515625 37.47265625 C124.67655448 23.40052621 115.4375686 15.52275222 100.59375 10.125 C88.04771548 6.75442356 75.8138909 8.95256132 64.4375 14.625 C53.72793499 20.80301423 48.2177554 29.14505548 43 40 C39.00025019 40.11710979 35.00094719 40.18755489 31 40.25 C29.87464844 40.28351563 28.74929687 40.31703125 27.58984375 40.3515625 C19.24902383 40.44911595 13.86124701 39.37092993 7.5390625 33.8515625 C6.59160156 32.74941406 6.59160156 32.74941406 5.625 31.625 C4.97789063 30.89539063 4.33078125 30.16578125 3.6640625 29.4140625 C-0.52305519 23.33979318 -0.24991548 17.21635596 -0.125 10.125 C-0.11597656 9.15046875 -0.10695313 8.1759375 -0.09765625 7.171875 C-0.07421623 4.78099272 -0.04140442 2.39062739 0 0 Z " fill="#FDC138" transform="translate(24,400)"/>
<path d="M0 0 C0.88798279 -0.0065712 1.77596558 -0.0131424 2.69085693 -0.01991272 C5.63798095 -0.03966948 8.58505393 -0.05131412 11.53222656 -0.0612793 C12.53789925 -0.06535482 13.54357193 -0.06943035 14.57971954 -0.07362938 C19.9034047 -0.0945011 25.227064 -0.10879757 30.55078125 -0.11816406 C36.04995559 -0.12922574 41.54872497 -0.16361986 47.0477562 -0.20333576 C51.27541862 -0.22948306 55.50298434 -0.23785427 59.73072052 -0.24144554 C61.75770042 -0.24631703 63.78467585 -0.25794697 65.81157684 -0.27648354 C68.6507522 -0.30083271 71.48887718 -0.29991751 74.328125 -0.29296875 C75.5814563 -0.31218384 75.5814563 -0.31218384 76.86010742 -0.33178711 C82.17854152 -0.28440784 85.20087709 0.64837623 89.42285156 4.17700195 C91.91420011 7.96818452 91.6380074 11.66985136 91.03613281 16.02075195 C90.07183668 19.41114344 88.17012553 21.08384083 85.42285156 23.17700195 C81.55409154 24.46658863 77.87380113 24.35737286 73.83984375 24.38574219 C72.52469032 24.40041786 72.52469032 24.40041786 71.18296814 24.41539001 C68.2785697 24.44532785 65.37421725 24.46672503 62.46972656 24.4855957 C61.47725166 24.49216753 60.48477676 24.49873936 59.46222687 24.50551033 C54.20871913 24.53809696 48.95523161 24.56254949 43.70166016 24.58203125 C39.35598224 24.59984441 35.0109532 24.63466607 30.66552734 24.68457031 C25.41650708 24.74478021 20.16808848 24.77550805 14.91873932 24.78520393 C12.92045339 24.79375825 10.92218352 24.81257578 8.92409515 24.84194756 C6.123165 24.88090392 3.32457473 24.88189158 0.5234375 24.87402344 C-0.29759964 24.89402405 -1.11863678 24.91402466 -1.96455383 24.93463135 C-7.43515622 24.86585177 -10.26193512 23.47463475 -14.26818466 19.75796604 C-16.29084065 17.31500578 -16.59672064 15.03160847 -17.01464844 11.92700195 C-16.43317114 6.94291084 -14.20433246 4.50348678 -10.57714844 1.17700195 C-7.2838929 -0.46962582 -3.62093714 0.01154073 0 0 Z " fill="#FFCD60" transform="translate(256.5771484375,351.822998046875)"/>
<path d="M0 0 C6.06343563 3.8805988 10.95667407 9.08758162 13.1875 16 C14.13757005 23.29123523 13.37764424 29.86043036 9.1875 36 C3.79463459 42.0383435 -1.01864162 45.40917892 -9.1875 46.2421875 C-15.26635125 46.55724991 -19.88255487 45.66166049 -24.8125 42 C-30.95363437 36.20415029 -34.90485316 30.73209923 -35.25 22.125 C-35.02618613 15.15233713 -33.53760694 10.85729496 -28.71875 5.8046875 C-20.54144386 -1.80020721 -10.69057161 -5.44614025 0 0 Z " fill="#232121" transform="translate(266.8125,42)"/>
<path d="M0 0 C5.94 0 11.88 0 18 0 C16.35 1.32 14.7 2.64 13 4 C8.33144312 8.89354758 9.48682146 15.12158681 9.5 21.5 C9.47164063 22.716875 9.44328125 23.93375 9.4140625 25.1875 C9.39165605 35.67371981 11.79678143 45.64940854 19.19921875 53.47265625 C26.98437723 60.07568654 35.07279441 63.25415718 45.2421875 63.4140625 C46.39474533 63.44311172 46.39474533 63.44311172 47.57058716 63.4727478 C50.00528138 63.53214117 52.44002393 63.57876628 54.875 63.625 C56.53387386 63.66321693 58.19272867 63.70227079 59.8515625 63.7421875 C63.90088542 63.83780907 67.95030113 63.92198701 72 64 C72 66.64 72 69.28 72 72 C48.24 72 24.48 72 0 72 C0 48.24 0 24.48 0 0 Z " fill="#598EDE" transform="translate(416,248)"/>
<path d="M0 0 C5.61 0 11.22 0 17 0 C15.35 1.32 13.7 2.64 12 4 C9.31621071 7.6026994 8.61733187 10.14311193 8.6015625 14.60546875 C8.59769531 15.67216797 8.59382813 16.73886719 8.58984375 17.83789062 C8.60144531 18.94326172 8.61304688 20.04863281 8.625 21.1875 C8.61339844 22.27353516 8.60179687 23.35957031 8.58984375 24.47851562 C8.63109651 35.92615766 11.07662958 45.44619866 19 54 C29.0617345 61.90043304 37.54239045 63.34445536 50.0625 63.3125 C51.96225586 63.33666992 51.96225586 63.33666992 53.90039062 63.36132812 C55.73053711 63.36229492 55.73053711 63.36229492 57.59765625 63.36328125 C59.26066772 63.36775269 59.26066772 63.36775269 60.95727539 63.37231445 C64.42892908 62.9475153 66.22114784 62.09845011 69 60 C69.99 58.68 70.98 57.36 72 56 C72 61.28 72 66.56 72 72 C48.24 72 24.48 72 0 72 C0 48.24 0 24.48 0 0 Z " fill="#598EDE" transform="translate(328,248)"/>
<path d="M0 0 C5.61 0 11.22 0 17 0 C15.35 1.32 13.7 2.64 12 4 C9.31621071 7.6026994 8.61733187 10.14311193 8.6015625 14.60546875 C8.59769531 15.67216797 8.59382812 16.73886719 8.58984375 17.83789062 C8.60144531 18.94326172 8.61304688 20.04863281 8.625 21.1875 C8.61339844 22.27353516 8.60179687 23.35957031 8.58984375 24.47851562 C8.63109651 35.92615766 11.07662958 45.44619866 19 54 C29.0617345 61.90043304 37.54239045 63.34445536 50.0625 63.3125 C51.96225586 63.33666992 51.96225586 63.33666992 53.90039062 63.36132812 C55.73053711 63.36229492 55.73053711 63.36229492 57.59765625 63.36328125 C59.26066772 63.36775269 59.26066772 63.36775269 60.95727539 63.37231445 C64.42892908 62.9475153 66.22114784 62.09845011 69 60 C69.99 58.68 70.98 57.36 72 56 C72 61.28 72 66.56 72 72 C48.24 72 24.48 72 0 72 C0 48.24 0 24.48 0 0 Z " fill="#598EDE" transform="translate(240,248)"/>
<path d="M0 0 C5.61 0 11.22 0 17 0 C15.35 1.32 13.7 2.64 12 4 C9.31621071 7.6026994 8.61733187 10.14311193 8.6015625 14.60546875 C8.59769531 15.67216797 8.59382812 16.73886719 8.58984375 17.83789062 C8.60144531 18.94326172 8.61304688 20.04863281 8.625 21.1875 C8.61339844 22.27353516 8.60179687 23.35957031 8.58984375 24.47851562 C8.63109651 35.92615766 11.07662958 45.44619866 19 54 C29.0617345 61.90043304 37.54239045 63.34445536 50.0625 63.3125 C51.96225586 63.33666992 51.96225586 63.33666992 53.90039062 63.36132812 C55.73053711 63.36229492 55.73053711 63.36229492 57.59765625 63.36328125 C59.26066772 63.36775269 59.26066772 63.36775269 60.95727539 63.37231445 C64.42892908 62.9475153 66.22114784 62.09845011 69 60 C69.99 58.68 70.98 57.36 72 56 C72 61.28 72 66.56 72 72 C48.24 72 24.48 72 0 72 C0 48.24 0 24.48 0 0 Z " fill="#598EDE" transform="translate(152,248)"/>
<path d="M0 0 C0.93199219 0.42410156 1.86398438 0.84820312 2.82421875 1.28515625 C16.24738055 8.00609779 25.97528994 18.81258335 31 33 C31 33.99 31 34.98 31 36 C28.36 36 25.72 36 23 36 C22.59910156 35.16597656 22.19820313 34.33195312 21.78515625 33.47265625 C14.67655448 19.40052621 5.4375686 11.52275222 -9.40625 6.125 C-21.95228452 2.75442356 -34.1861091 4.95256132 -45.5625 10.625 C-56.27206501 16.80301423 -61.7822446 25.14505548 -67 36 C-69.64 36 -72.28 36 -75 36 C-73.63865884 24.36828758 -65.18003671 13.98132269 -56.28125 6.80859375 C-49.26307212 1.79429035 -42.34124764 -0.94944329 -34 -3 C-33.36255859 -3.1743457 -32.72511719 -3.34869141 -32.06835938 -3.52832031 C-21.5468729 -5.92769612 -9.68013419 -4.44538351 0 0 Z " fill="#FBD47D" transform="translate(134,404)"/>
<path d="M0 0 C7.48232297 6.88779731 13.90977463 15.97340052 14.828125 26.23046875 C12.188125 26.23046875 9.548125 26.23046875 6.828125 26.23046875 C6.42722656 25.39644531 6.02632813 24.56242187 5.61328125 23.703125 C-1.49532052 9.63099496 -10.7343064 1.75322097 -25.578125 -3.64453125 C-38.12415952 -7.01510769 -50.3579841 -4.81696993 -61.734375 0.85546875 C-72.44394001 7.03348298 -77.9541196 15.37552423 -83.171875 26.23046875 C-85.811875 26.23046875 -88.451875 26.23046875 -91.171875 26.23046875 C-90.66196594 21.18465219 -89.06943681 17.9266373 -86.359375 13.66796875 C-85.32876953 12.02634766 -85.32876953 12.02634766 -84.27734375 10.3515625 C-76.12481857 -1.73353513 -63.81349386 -10.27297195 -49.421875 -13.08203125 C-30.45936236 -15.57774259 -14.98311449 -12.20746558 0 0 Z " fill="#FBD47E" transform="translate(454.171875,413.76953125)"/>
<path d="M0 0 C0.72110962 -0.0038269 1.44221924 -0.00765381 2.18518066 -0.01159668 C3.70826617 -0.01431603 5.23139836 -0.00695293 6.75439453 0.00976562 C9.08601981 0.03117901 11.41456432 0.00996916 13.74609375 -0.015625 C15.2265693 -0.01298172 16.70704294 -0.00785674 18.1875 0 C18.8844397 -0.00809692 19.58137939 -0.01619385 20.29943848 -0.02453613 C23.34030007 0.03437997 25.16140943 0.16960457 27.53173828 2.15234375 C28.92238836 5.26739994 28.9823101 7.71400439 28.9921875 11.125 C28.99798828 13.04119141 28.99798828 13.04119141 29.00390625 14.99609375 C28.99762207 15.65851074 28.99133789 16.32092773 28.98486328 17.00341797 C28.96879886 19.02510089 28.98472765 21.04478513 29.00390625 23.06640625 C29.00003906 24.34386719 28.99617188 25.62132812 28.9921875 26.9375 C28.98880371 28.10603516 28.98541992 29.27457031 28.98193359 30.47851562 C28.55852598 33.808257 27.98685308 35.20918781 25.59375 37.53125 C22.16685445 38.20837153 19.84841675 38.33896344 16.83105469 36.39648438 C14.94687798 34.77063072 13.20627934 33.06294598 11.46875 31.28125 C10.16258595 29.99234586 8.85527131 28.70460681 7.546875 27.41796875 C6.89267578 26.76618652 6.23847656 26.1144043 5.56445312 25.44287109 C3.68247891 23.6173188 1.7515278 21.88700514 -0.234375 20.17578125 C-0.83233887 19.65467773 -1.43030273 19.13357422 -2.04638672 18.59667969 C-3.17318013 17.62052711 -4.30980656 16.65557 -5.45751953 15.70410156 C-8.26641881 13.22140281 -9.39571343 11.56773188 -10.4453125 7.93359375 C-10.40625 4.53125 -10.40625 4.53125 -9.36669922 2.35180664 C-6.51035744 -0.30071399 -3.70411531 -0.04303377 0 0 Z " fill="#84B5FF" transform="translate(367.40625,252.46875)"/>
<path d="M0 0 C0.72110962 -0.0038269 1.44221924 -0.00765381 2.18518066 -0.01159668 C3.70826617 -0.01431603 5.23139836 -0.00695293 6.75439453 0.00976562 C9.08601981 0.03117901 11.41456432 0.00996916 13.74609375 -0.015625 C15.2265693 -0.01298172 16.70704294 -0.00785674 18.1875 0 C18.8844397 -0.00809692 19.58137939 -0.01619385 20.29943848 -0.02453613 C23.34030007 0.03437997 25.16140943 0.16960457 27.53173828 2.15234375 C28.92238836 5.26739994 28.9823101 7.71400439 28.9921875 11.125 C28.99798828 13.04119141 28.99798828 13.04119141 29.00390625 14.99609375 C28.99762207 15.65851074 28.99133789 16.32092773 28.98486328 17.00341797 C28.96879886 19.02510089 28.98472765 21.04478513 29.00390625 23.06640625 C29.00003906 24.34386719 28.99617188 25.62132812 28.9921875 26.9375 C28.98880371 28.10603516 28.98541992 29.27457031 28.98193359 30.47851562 C28.55852598 33.808257 27.98685308 35.20918781 25.59375 37.53125 C22.16685445 38.20837153 19.84841675 38.33896344 16.83105469 36.39648438 C14.94687798 34.77063072 13.20627934 33.06294598 11.46875 31.28125 C10.16258595 29.99234586 8.85527131 28.70460681 7.546875 27.41796875 C6.89267578 26.76618652 6.23847656 26.1144043 5.56445312 25.44287109 C3.68247891 23.6173188 1.7515278 21.88700514 -0.234375 20.17578125 C-0.83233887 19.65467773 -1.43030273 19.13357422 -2.04638672 18.59667969 C-3.17318013 17.62052711 -4.30980656 16.65557 -5.45751953 15.70410156 C-8.26641881 13.22140281 -9.39571343 11.56773188 -10.4453125 7.93359375 C-10.40625 4.53125 -10.40625 4.53125 -9.36669922 2.35180664 C-6.51035744 -0.30071399 -3.70411531 -0.04303377 0 0 Z " fill="#84B5FF" transform="translate(279.40625,252.46875)"/>
<path d="M0 0 C0.72110962 -0.0038269 1.44221924 -0.00765381 2.18518066 -0.01159668 C3.70826617 -0.01431603 5.23139836 -0.00695293 6.75439453 0.00976562 C9.08601981 0.03117901 11.41456432 0.00996916 13.74609375 -0.015625 C15.2265693 -0.01298172 16.70704294 -0.00785674 18.1875 0 C18.8844397 -0.00809692 19.58137939 -0.01619385 20.29943848 -0.02453613 C23.34030007 0.03437997 25.16140943 0.16960457 27.53173828 2.15234375 C28.92238836 5.26739994 28.9823101 7.71400439 28.9921875 11.125 C28.99798828 13.04119141 28.99798828 13.04119141 29.00390625 14.99609375 C28.99762207 15.65851074 28.99133789 16.32092773 28.98486328 17.00341797 C28.96879886 19.02510089 28.98472765 21.04478513 29.00390625 23.06640625 C29.00003906 24.34386719 28.99617188 25.62132812 28.9921875 26.9375 C28.98880371 28.10603516 28.98541992 29.27457031 28.98193359 30.47851562 C28.55852598 33.808257 27.98685308 35.20918781 25.59375 37.53125 C22.16685445 38.20837153 19.84841675 38.33896344 16.83105469 36.39648438 C14.94687798 34.77063072 13.20627934 33.06294598 11.46875 31.28125 C10.16258595 29.99234586 8.85527131 28.70460681 7.546875 27.41796875 C6.89267578 26.76618652 6.23847656 26.1144043 5.56445312 25.44287109 C3.68247891 23.6173188 1.7515278 21.88700514 -0.234375 20.17578125 C-0.83233887 19.65467773 -1.43030273 19.13357422 -2.04638672 18.59667969 C-3.17318013 17.62052711 -4.30980656 16.65557 -5.45751953 15.70410156 C-8.26641881 13.22140281 -9.39571343 11.56773188 -10.4453125 7.93359375 C-10.40625 4.53125 -10.40625 4.53125 -9.36669922 2.35180664 C-6.51035744 -0.30071399 -3.70411531 -0.04303377 0 0 Z " fill="#84B5FF" transform="translate(191.40625,252.46875)"/>
<path d="M0 0 C1.05701111 0.00453186 1.05701111 0.00453186 2.13537598 0.00915527 C4.76357707 0.02483211 7.39156911 0.06671634 10.01953125 0.10546875 C18.83671875 0.19828125 18.83671875 0.19828125 27.83203125 0.29296875 C27.83203125 12.50296875 27.83203125 24.71296875 27.83203125 37.29296875 C19.96429578 37.29296875 19.96429578 37.29296875 16.20703125 33.98046875 C15.36140625 33.25472656 14.51578125 32.52898437 13.64453125 31.78125 C12.71640625 30.96011719 11.78828125 30.13898438 10.83203125 29.29296875 C9.19253956 27.88862529 7.54598254 26.49293877 5.89794922 25.09863281 C4.7751042 24.14860801 3.65431411 23.19614886 2.53564453 22.24121094 C-1.12294344 19.12840336 -4.85754736 16.18921247 -8.77734375 13.4140625 C-10.16796875 12.29296875 -10.16796875 12.29296875 -11.16796875 10.29296875 C-11.62117072 4.06144166 -11.62117072 4.06144166 -10.1628418 1.58862305 C-6.99640866 -0.46795028 -3.64973682 -0.07351571 0 0 Z " fill="#84B5FF" transform="translate(460.16796875,252.70703125)"/>
<path d="M0 0 C1.03789581 1.64333504 2.03567924 3.31243867 3 5 C3.66 5.66 4.32 6.32 5 7 C4.19175781 7.36351562 3.38351562 7.72703125 2.55078125 8.1015625 C-5.41546219 11.84925242 -10.26453053 14.61790741 -13.8125 22.875 C-16.16427612 30.01142408 -15.34567852 35.81482143 -12.3984375 42.59765625 C-9.45944585 47.64648269 -5.25456419 50.89670263 -0.0625 53.4375 C8.01265759 54.92069221 14.80925267 54.23124967 22 50 C27.31336463 45.49410729 29.99873914 40.59238871 32 34 C32.78375 34.639375 33.5675 35.27875 34.375 35.9375 C36.79539281 37.98142313 36.79539281 37.98142313 39 39 C37.49646347 46.8518019 32.92845367 52.99680276 26.625 57.875 C18.98820716 62.7686433 10.96336426 64.04279663 2 63 C-6.81752213 60.7479056 -14.96284039 55.68055669 -19.96875 47.96875 C-24.11392555 40.05523304 -25.59038416 31.06502433 -23.30859375 22.36328125 C-19.68941941 12.47490951 -13.76723801 5.1580444 -4.1875 0.6875 C-2 0 -2 0 0 0 Z " fill="#2A2D32" transform="translate(408,425)"/>
<path d="M0 0 C1.03789581 1.64333504 2.03567924 3.31243867 3 5 C3.66 5.66 4.32 6.32 5 7 C4.19175781 7.36351562 3.38351563 7.72703125 2.55078125 8.1015625 C-5.41546219 11.84925242 -10.26453053 14.61790741 -13.8125 22.875 C-16.16427612 30.01142408 -15.34567852 35.81482143 -12.3984375 42.59765625 C-9.45944585 47.64648269 -5.25456419 50.89670263 -0.0625 53.4375 C8.01265759 54.92069221 14.80925267 54.23124967 22 50 C27.31336463 45.49410729 29.99873914 40.59238871 32 34 C32.78375 34.639375 33.5675 35.27875 34.375 35.9375 C36.79539281 37.98142313 36.79539281 37.98142313 39 39 C37.49646347 46.8518019 32.92845367 52.99680276 26.625 57.875 C18.98820716 62.7686433 10.96336426 64.04279663 2 63 C-6.81752213 60.7479056 -14.96284039 55.68055669 -19.96875 47.96875 C-24.11392555 40.05523304 -25.59038416 31.06502433 -23.30859375 22.36328125 C-19.68941941 12.47490951 -13.76723801 5.1580444 -4.1875 0.6875 C-2 0 -2 0 0 0 Z " fill="#2A2D32" transform="translate(104,425)"/>
<path d="M0 0 C7 0 7 0 8.93359375 1.28515625 C9.42988281 1.87167969 9.92617188 2.45820313 10.4375 3.0625 C12.84385392 5.73802102 15.25593225 8.1683355 18 10.5 C21.27400022 13.31892683 24.32574371 16.27795497 27.32421875 19.38671875 C28.94008148 20.9423162 30.60433915 22.15385809 32.4375 23.4375 C35.14339953 26.14339953 35.41897143 26.5433099 35.5625 30.125 C35 34 35 34 33.9206543 35.72387695 C31.00688418 37.659847 28.08341373 37.36967269 24.70703125 37.29296875 C23.41514893 37.28547607 22.1232666 37.2779834 20.79223633 37.27026367 C18.32726685 37.22929565 18.32726685 37.22929565 15.8125 37.1875 C10.594375 37.125625 5.37625 37.06375 0 37 C0 24.79 0 12.58 0 0 Z " fill="#84B5FE" transform="translate(24,332)"/>
<path d="M0 0 C0.66 0.33 1.32 0.66 2 1 C1.48050781 1.66644531 0.96101563 2.33289063 0.42578125 3.01953125 C-5.99984021 11.5118036 -11.66828763 20.05349191 -12 31 C-12.07347656 31.91910156 -12.14695313 32.83820312 -12.22265625 33.78515625 C-13.30705895 56.2239506 0.11288487 79.17010862 10.375 98.3125 C10.86234619 99.23119873 11.34969238 100.14989746 11.85180664 101.09643555 C14.35516056 105.63841291 16.47786306 109.19551507 21 112 C23.68507329 112.78946609 23.68507329 112.78946609 26 113 C24.54955729 117.10958767 22.48889248 120.43258745 20 124 C16.11433737 122.70477912 15.74345703 121.32851053 13.7421875 117.8125 C13.12102051 116.7299292 12.49985352 115.6473584 11.85986328 114.53198242 C11.19764676 113.35498976 10.5360385 112.17765468 9.875 111 C9.19422167 109.79967387 8.51306739 108.59956088 7.83154297 107.3996582 C5.87275823 103.94135181 3.93493022 100.47170732 2 97 C1.52626953 96.15614746 1.05253906 95.31229492 0.56445312 94.44287109 C-24.24944069 50.03854532 -24.24944069 50.03854532 -21 28 C-17.54552111 15.80686051 -10.42018155 6.9467877 0 0 Z " fill="#95252D" transform="translate(237,28)"/>
<path d="M0 0 C26.4 0 52.8 0 80 0 C76.5328607 1.73356965 73.76916601 2.61407001 70.0625 3.5625 C58.782777 6.97559953 50.26730924 13.82242662 43 23 C42.01385484 24.01366549 41.01790607 25.0182326 40 26 C39.90203125 25.33613281 39.8040625 24.67226563 39.703125 23.98828125 C38.80747582 18.69931843 38.1141297 14.76149001 34 11 C30.01331222 9.01700714 26.59192364 8.70287023 22.16796875 8.5859375 C20.87568359 8.54726563 19.58339844 8.50859375 18.25195312 8.46875 C16.89714005 8.43729986 15.54232225 8.40605239 14.1875 8.375 C12.81312728 8.3367825 11.43877756 8.2977286 10.06445312 8.2578125 C6.70977011 8.16364596 3.35509107 8.078018 0 8 C0 5.36 0 2.72 0 0 Z " fill="#F4AC1C" transform="translate(24,400)"/>
<path d="M0 0 C0.8245166 -0.00478363 1.6490332 -0.00956726 2.49853516 -0.01449585 C4.23667313 -0.01788872 5.97487544 -0.00872903 7.71289062 0.01220703 C10.36733825 0.03898521 13.01755825 0.01244254 15.671875 -0.01953125 C17.36459263 -0.01622704 19.05730763 -0.00982056 20.75 0 C21.93456787 -0.01518173 21.93456787 -0.01518173 23.14306641 -0.03067017 C27.35331444 0.05848655 28.94435394 0.32614833 32.375 3.01806641 C34.375 5.6640625 34.375 5.6640625 35 8.6640625 C34.14258491 12.77965492 32.6700365 14.0785529 29.375 16.6640625 C26.4937396 17.38167245 23.70823382 17.3660385 20.75 17.328125 C19.5132251 17.33530045 19.5132251 17.33530045 18.25146484 17.34262085 C16.51332687 17.34601372 14.77512456 17.33685403 13.03710938 17.31591797 C10.38266175 17.28913979 7.73244175 17.31568246 5.078125 17.34765625 C3.38540737 17.34435204 1.69269237 17.33794556 0 17.328125 C-0.78971191 17.33824615 -1.57942383 17.34836731 -2.39306641 17.35879517 C-6.60331444 17.26963845 -8.19435394 17.00197667 -11.625 14.31005859 C-13.625 11.6640625 -13.625 11.6640625 -14.25 8.6640625 C-12.6040416 0.76346216 -6.91215509 -0.08858799 0 0 Z " fill="#232220" transform="translate(437.625,375.3359375)"/>
<path d="M0 0 C0.8245166 -0.00478363 1.6490332 -0.00956726 2.49853516 -0.01449585 C4.23667313 -0.01788872 5.97487544 -0.00872903 7.71289062 0.01220703 C10.36733825 0.03898521 13.01755825 0.01244254 15.671875 -0.01953125 C17.36459263 -0.01622704 19.05730763 -0.00982056 20.75 0 C21.93456787 -0.01518173 21.93456787 -0.01518173 23.14306641 -0.03067017 C27.35331444 0.05848655 28.94435394 0.32614833 32.375 3.01806641 C34.375 5.6640625 34.375 5.6640625 35 8.6640625 C34.14258491 12.77965492 32.6700365 14.0785529 29.375 16.6640625 C26.4937396 17.38167245 23.70823382 17.3660385 20.75 17.328125 C19.5132251 17.33530045 19.5132251 17.33530045 18.25146484 17.34262085 C16.51332687 17.34601372 14.77512456 17.33685403 13.03710938 17.31591797 C10.38266175 17.28913979 7.73244175 17.31568246 5.078125 17.34765625 C3.38540737 17.34435204 1.69269237 17.33794556 0 17.328125 C-0.78971191 17.33824615 -1.57942383 17.34836731 -2.39306641 17.35879517 C-6.60331444 17.26963845 -8.19435394 17.00197667 -11.625 14.31005859 C-13.625 11.6640625 -13.625 11.6640625 -14.25 8.6640625 C-12.6040416 0.76346216 -6.91215509 -0.08858799 0 0 Z " fill="#232220" transform="translate(437.625,351.3359375)"/>
<path d="M0 0 C0.99773437 -0.01546875 1.99546875 -0.0309375 3.0234375 -0.046875 C10.27460069 -0.00799477 10.27460069 -0.00799477 13.6328125 2.34375 C15.40074525 5.13203251 15.862779 7.20669602 16 10.5 C14.87981101 13.86056696 14.05465901 14.46356066 11 16.5 C7.39211472 17.00978469 3.76502526 16.96252226 0.125 17 C-0.86886719 17.04125 -1.86273438 17.0825 -2.88671875 17.125 C-9.99526556 17.20112902 -9.99526556 17.20112902 -12.80737305 15.23876953 C-15.1266787 12.59994056 -15.99196904 10.9015481 -16.0625 7.375 C-13.07822481 -0.70009756 -7.63656707 -0.11839639 0 0 Z " fill="#212223" transform="translate(110,343.5)"/>
<path d="M0 0 C8.25 0 16.5 0 25 0 C25.66 3.3 26.32 6.6 27 10 C29.93295128 13.05939379 29.93295128 13.05939379 33 15 C33 15.33 33 15.66 33 16 C19.47 16 5.94 16 -8 16 C-6.35 14.68 -4.7 13.36 -3 12 C0.48750098 7.55042979 0 6.28644516 0 0 Z " fill="#F4AC1C" transform="translate(343,216)"/>
<path d="M0 0 C11.3071628 -0.5245591 20.09058653 0.51459149 28.95703125 7.984375 C36.26057413 15.19016491 39.00750169 22.7623674 39.1875 32.875 C39.16262383 35.65118044 38.8980547 37.30583589 38 40 C34.34683329 38.75023244 33.21934164 38.32901247 31 35 C30.67292961 33.11305546 30.40914057 31.21471192 30.1875 29.3125 C29.13885498 22.68442309 27.33461213 18.02513537 22.31640625 13.47265625 C17.40360211 9.94891939 12.62124671 9.36218984 6.72265625 8.6015625 C2.77969228 7.73037677 1.3515707 6.19141737 -1 3 C-0.67 2.01 -0.34 1.02 0 0 Z " fill="#3F4145" transform="translate(409,424)"/>
<path d="M0 0 C11.3071628 -0.5245591 20.09058653 0.51459149 28.95703125 7.984375 C36.26057413 15.19016491 39.00750169 22.7623674 39.1875 32.875 C39.16262383 35.65118044 38.8980547 37.30583589 38 40 C34.34683329 38.75023244 33.21934164 38.32901247 31 35 C30.67292961 33.11305546 30.40914057 31.21471192 30.1875 29.3125 C29.13885498 22.68442309 27.33461213 18.02513537 22.31640625 13.47265625 C17.40360211 9.94891939 12.62124671 9.36218984 6.72265625 8.6015625 C2.77969228 7.73037677 1.3515707 6.19141737 -1 3 C-0.67 2.01 -0.34 1.02 0 0 Z " fill="#3F4145" transform="translate(105,424)"/>
<path d="M0 0 C1.27133789 0.00966797 1.27133789 0.00966797 2.56835938 0.01953125 C3.8899707 0.04466797 3.8899707 0.04466797 5.23828125 0.0703125 C6.57729492 0.08384766 6.57729492 0.08384766 7.94335938 0.09765625 C10.14610439 0.12121502 12.34830713 0.15410921 14.55078125 0.1953125 C14.62554687 0.85917969 14.7003125 1.52304688 14.77734375 2.20703125 C15.67076448 8.53916078 15.67076448 8.53916078 19.67578125 13.2578125 C20.62453125 13.8971875 21.57328125 14.5365625 22.55078125 15.1953125 C22.55078125 15.5253125 22.55078125 15.8553125 22.55078125 16.1953125 C9.68078125 16.1953125 -3.18921875 16.1953125 -16.44921875 16.1953125 C-14.80096176 12.89879853 -13.10239242 10.08268101 -11.01171875 7.0703125 C-10.41488281 6.20148438 -9.81804687 5.33265625 -9.203125 4.4375 C-6.4239541 0.88461783 -4.36562941 -0.05859905 0 0 Z " fill="#F2AB1C" transform="translate(113.44921875,215.8046875)"/>
<path d="M0 0 C7.27005719 0.38946735 12.29273358 2.42120321 17.578125 7.5234375 C20.09715846 10.37544665 21.06230009 12.24920036 22 16 C11.77 16 1.54 16 -9 16 C-7.35 14.68 -5.7 13.36 -4 12 C-1.08647689 8.14998732 -0.46732748 4.76674034 0 0 Z " fill="#F2AB1C" transform="translate(464,216)"/>
<path d="M0 0 C2.66589042 0.54323805 3.75768995 0.96351964 5.875 2.75 C7.21538506 5.84964046 7.42167869 7.71409302 6.875 11.0625 C4.41905875 14.38524404 2.9493356 15.83868008 -1.125 16.6875 C-5.1993356 15.83868008 -6.66905875 14.38524404 -9.125 11.0625 C-9.75 8.0625 -9.75 8.0625 -9.125 5.0625 C-6.50620524 1.2161452 -4.62486834 -0.35838463 0 0 Z " fill="#CED7E0" transform="translate(417.125,447.9375)"/>
<path d="M0 0 C2.66589042 0.54323805 3.75768995 0.96351964 5.875 2.75 C7.21538506 5.84964046 7.42167869 7.71409302 6.875 11.0625 C4.41905875 14.38524404 2.9493356 15.83868008 -1.125 16.6875 C-5.1993356 15.83868008 -6.66905875 14.38524404 -9.125 11.0625 C-9.75 8.0625 -9.75 8.0625 -9.125 5.0625 C-6.50620524 1.2161452 -4.62486834 -0.35838463 0 0 Z " fill="#CED7E0" transform="translate(113.125,447.9375)"/>
<path d="M0 0 C2.66589042 0.54323805 3.75768995 0.96351964 5.875 2.75 C7.21538506 5.84964046 7.42167869 7.71409302 6.875 11.0625 C4.41905875 14.38524404 2.9493356 15.83868008 -1.125 16.6875 C-5.1993356 15.83868008 -6.66905875 14.38524404 -9.125 11.0625 C-9.75 8.0625 -9.75 8.0625 -9.125 5.0625 C-6.50620524 1.2161452 -4.62486834 -0.35838463 0 0 Z " fill="#F3F3F3" transform="translate(257.125,55.9375)"/>
<path d="M0 0 C0.33 0 0.66 0 1 0 C1.43660251 3.75478159 1.32859618 5.51277119 -0.8125 8.6875 C-5.52201503 12.10420698 -9.65434674 11.54780388 -15.3125 11.3125 C-16.33923828 11.28994141 -17.36597656 11.26738281 -18.42382812 11.24414062 C-20.9507179 11.18537575 -23.47460255 11.10327849 -26 11 C-24.56640625 8.546875 -24.56640625 8.546875 -22 6 C-18.98941573 5.2505265 -16.02913217 5.25491125 -12.9375 5.25 C-11.32154463 5.21678669 -9.70564955 5.18045587 -8.08984375 5.140625 C-7.02044556 5.13337402 -7.02044556 5.13337402 -5.92944336 5.12597656 C-3.77979489 5.0675685 -3.77979489 5.0675685 -1 4 C-0.26676204 1.98491642 -0.26676204 1.98491642 0 0 Z " fill="#4F7ABB" transform="translate(125,354)"/>
<path d="M0 0 C0 0.33 0 0.66 0 1 C-1.3921875 1.3403125 -1.3921875 1.3403125 -2.8125 1.6875 C-6.18751026 2.66456319 -6.18751026 2.66456319 -7.25 5.5625 C-9 8 -9 8 -11.40234375 8.546875 C-13.94051412 8.78894454 -16.45125489 8.94739926 -19 9 C-19.26554687 8.36578125 -19.53109375 7.7315625 -19.8046875 7.078125 C-20.90870494 4.66213775 -20.90870494 4.66213775 -24.125 3.75 C-25.07375 3.5025 -26.0225 3.255 -27 3 C-27 2.67 -27 2.34 -27 2 C-17.86970027 0.09572892 -9.28145408 -0.22823248 0 0 Z " fill="#FECD60" transform="translate(426,400)"/>
<path d="M0 0 C0 0.33 0 0.66 0 1 C-1.093125 1.226875 -2.18625 1.45375 -3.3125 1.6875 C-7.14817708 2.58769873 -7.14817708 2.58769873 -8.375 5.5625 C-10 8 -10 8 -12.17578125 8.546875 C-14.45670802 8.78809276 -16.70740985 8.94713104 -19 9 C-19.26554687 8.36578125 -19.53109375 7.7315625 -19.8046875 7.078125 C-20.90870494 4.66213775 -20.90870494 4.66213775 -24.125 3.75 C-25.07375 3.5025 -26.0225 3.255 -27 3 C-27 2.67 -27 2.34 -27 2 C-18.08489362 -0.641513 -9.20604186 -0.17875809 0 0 Z " fill="#FECC5E" transform="translate(122,400)"/>
<path d="M0 0 C0.33 0.99 0.66 1.98 1 3 C4.2838907 7.59744698 6.31417757 9.67771571 12 11 C9.77613628 13.73706304 8.5774153 14.88943111 5.0625 15.5625 C0.91425523 14.80057749 -0.51397551 13.36344489 -3 10 C-3.5923739 6.37170989 -3.4674199 4.74008151 -1.5 1.625 C-1.005 1.08875 -0.51 0.5525 0 0 Z " fill="#CCD5DE" transform="translate(251,57)"/>
<path d="M0 0 C5.4611399 0.35233161 5.4611399 0.35233161 8 1 C9.5 3.0625 9.5 3.0625 10 5 C5.94641576 7.70238949 3.81689896 7.22937614 -1 7 C-1.66 6.67 -2.32 6.34 -3 6 C-2 4 -1 2 0 0 Z " fill="#F7F8F8" transform="translate(413,448)"/>
<path d="M0 0 C5.4611399 0.35233161 5.4611399 0.35233161 8 1 C9.5 3.0625 9.5 3.0625 10 5 C5.94641576 7.70238949 3.81689896 7.22937614 -1 7 C-1.66 6.67 -2.32 6.34 -3 6 C-2 4 -1 2 0 0 Z " fill="#F7F8F8" transform="translate(109,448)"/>
<path d="M0 0 C0.268125 0.5775 0.53625 1.155 0.8125 1.75 C1.93012871 4.06163244 1.93012871 4.06163244 3.6875 6 C5 8 5 8 4.6875 10.25 C4.460625 10.8275 4.23375 11.405 4 12 C1.36 12 -1.28 12 -4 12 C-3.45660208 7.43545749 -2.20536179 4.0271824 0 0 Z " fill="#FECD5F" transform="translate(63,428)"/>
<path d="M0 0 C2.73370045 2.36092311 3.91097645 4.56538728 5 8 C5 9.32 5 10.64 5 12 C2.36 12 -0.28 12 -3 12 C-3.6875 10.1875 -3.6875 10.1875 -4 8 C-3.02246356 6.97803008 -2.0194119 5.98020375 -1 5 C-0.27802838 2.39388923 -0.27802838 2.39388923 0 0 Z " fill="#FACA5E" transform="translate(464,428)"/>
<path d="M0 0 C3.05936637 3.75467691 5 7.08113061 5 12 C2.36 12 -0.28 12 -3 12 C-3.6875 10.25 -3.6875 10.25 -4 8 C-2.625 6 -2.625 6 -1 4 C-0.29485154 1.85266073 -0.29485154 1.85266073 0 0 Z " fill="#FDCC5F" transform="translate(160,428)"/>
<path d="M0 0 C0.66 0.99 1.32 1.98 2 3 C2.8353125 3.9590625 2.8353125 3.9590625 3.6875 4.9375 C5 7 5 7 4.6875 9.25 C4.460625 9.8275 4.23375 10.405 4 11 C1.36 11 -1.28 11 -4 11 C-3.48964169 6.6109185 -2.47785723 3.66291938 0 0 Z " fill="#FECC5F" transform="translate(367,429)"/>
<path d="M0 0 C1.11375 1.175625 1.11375 1.175625 2.25 2.375 C4.54433318 4.56504531 6.12158858 5.82731386 9 7 C7.75 8.5625 7.75 8.5625 6 10 C3.9375 9.875 3.9375 9.875 2 9 C-0.29013653 5.5647952 -0.17842973 4.014669 0 0 Z " fill="#5989D1" transform="translate(94,354)"/>
</svg>
