<?xml version="1.0" encoding="UTF-8"?>
<svg version="1.1" xmlns="http://www.w3.org/2000/svg" width="512" height="512">
<path d="M0 0 C0.76830328 -0.00623996 1.53660656 -0.01247993 2.32819176 -0.01890898 C4.90481554 -0.03487462 7.48049797 -0.02222126 10.05712891 -0.00964355 C11.90342766 -0.0150631 13.74972209 -0.02218482 15.5960083 -0.03088379 C20.61251653 -0.04913998 25.6286962 -0.04204012 30.64521027 -0.02936745 C35.89108679 -0.01925168 41.13693489 -0.02862916 46.3828125 -0.03491211 C55.19292256 -0.04219266 64.00289857 -0.03259009 72.81298828 -0.0135498 C83.00368938 0.00821968 93.19407038 0.0011686 103.38476372 -0.02085543 C112.12881145 -0.03899778 120.87276273 -0.04157344 129.6168232 -0.03110075 C134.84166843 -0.02485942 140.06636313 -0.02404777 145.29119873 -0.0372467 C150.20293945 -0.04878762 155.11426684 -0.04081165 160.02596283 -0.01766968 C161.83034325 -0.01237318 163.63475836 -0.01391241 165.43912506 -0.02272034 C167.8990165 -0.03362257 170.35757663 -0.01997792 172.81738281 0 C173.89306046 -0.01338433 173.89306046 -0.01338433 174.99046898 -0.02703905 C178.36536228 0.0262692 180.13218146 0.29833218 182.85476685 2.36212921 C184.93449792 5.23401772 184.8683795 7.06384196 184.79931641 10.58605957 C184.77998047 12.32629395 184.77998047 12.32629395 184.76025391 14.10168457 C184.70998047 15.91152832 184.70998047 15.91152832 184.65869141 17.75793457 C184.64064453 18.97996582 184.62259766 20.20199707 184.60400391 21.46105957 C184.55687241 24.47747535 184.49108553 27.49230948 184.40869141 30.50793457 C185.50148407 30.50127274 186.59427673 30.4946109 187.72018433 30.48774719 C198.04777091 30.42677967 208.3753207 30.38188702 218.7030468 30.35249805 C224.01190602 30.33688068 229.32061929 30.31571443 234.62939453 30.28161621 C239.75818429 30.24888235 244.88683416 30.23105204 250.01572037 30.22330284 C251.96682053 30.21778444 253.91791353 30.20700864 255.8689537 30.1907444 C271.1419375 30.06855601 283.20880979 30.93580362 295.03369141 41.57043457 C301.64327891 48.46805455 305.54003234 57.68607349 305.52894592 67.20930481 C305.53100792 68.58270775 305.53100792 68.58270775 305.53311157 69.9838562 C305.5295163 70.97575958 305.52592102 71.96766296 305.5222168 72.98962402 C305.52236282 74.04373978 305.52250885 75.09785553 305.5226593 76.18391418 C305.52196345 79.66303577 305.51418633 83.14210361 305.50634766 86.62121582 C305.50448231 89.03545604 305.50305896 91.44969664 305.50205994 93.86393738 C305.49824392 100.21462043 305.48842141 106.56528058 305.47735596 112.91595459 C305.46712218 119.39778331 305.4625581 125.87961573 305.45751953 132.3614502 C305.44679835 145.07695476 305.42992542 157.79244344 305.40869141 170.50793457 C306.48895599 170.49683151 307.56922058 170.48572845 308.68222046 170.47428894 C318.89201587 170.3726711 329.10170788 170.29785341 339.31189537 170.24887371 C344.56035919 170.22284555 349.80841282 170.18757177 355.05664062 170.1307373 C360.12710188 170.07617523 365.19717006 170.04646309 370.26790237 170.03354836 C372.19671435 170.02435178 374.12550624 170.00639324 376.05414963 169.97928429 C396.25512638 169.70678453 396.25512638 169.70678453 403.40869141 175.50793457 C407.77746526 180.24779098 410.54112579 184.2883359 410.5222168 190.88757324 C410.52214127 191.76825974 410.52206573 192.64894623 410.52198792 193.55632019 C410.51682663 194.50328262 410.51166534 195.45024506 410.50634766 196.42590332 C410.50422523 197.88447502 410.50422523 197.88447502 410.50205994 199.37251282 C410.49645957 202.48018461 410.48390703 205.58778453 410.47119141 208.69543457 C410.46617645 210.80155332 410.46161354 212.9076732 410.45751953 215.01379395 C410.44649003 220.17853521 410.42922516 225.3432227 410.40869141 230.50793457 C415.35869141 230.50793457 420.30869141 230.50793457 425.40869141 230.50793457 C425.38774414 228.83247559 425.36679687 227.1570166 425.34521484 225.43078613 C425.27287563 219.22123748 425.22691306 213.01172615 425.18896484 206.80187988 C425.1710924 204.11288991 425.14324666 201.42427631 425.10693359 198.73547363 C425.05847525 194.87305896 425.03573514 191.01122249 425.01806641 187.14855957 C424.99742126 185.94427307 424.97677612 184.73998657 424.95550537 183.49920654 C424.95520325 182.37834656 424.95490112 181.25748657 424.95458984 180.10266113 C424.9457074 179.11670959 424.93682495 178.13075806 424.92767334 177.1149292 C425.54937337 173.74547439 426.71967139 172.57233646 429.40869141 170.50793457 C432.90869141 170.00793457 432.90869141 170.00793457 436.40869141 170.50793457 C439.00978125 172.52919826 440.24902648 173.72561809 440.91484928 176.98797607 C440.91905966 178.39052643 440.91905966 178.39052643 440.9233551 179.82141113 C440.93607956 180.89814087 440.94880402 181.97487061 440.96191406 183.08422852 C440.95212524 184.84857239 440.95212524 184.84857239 440.94213867 186.64855957 C440.95075424 187.89117554 440.95936981 189.1337915 440.96824646 190.4140625 C440.98706168 193.81927608 440.9878008 197.22351699 440.97892499 200.62870789 C440.9738145 203.47177917 440.98110801 206.31476317 440.98839706 209.15782547 C441.00539672 215.86444989 441.00182925 222.57084678 440.98510742 229.27746582 C440.96817935 236.19639632 440.98402918 243.11469625 441.0163303 250.03355789 C441.04301784 255.97510064 441.05030475 261.916447 441.04181522 267.85804367 C441.03688422 271.40623725 441.03911044 274.95405127 441.05960274 278.50219727 C441.08135325 282.45748642 441.06257054 286.4120139 441.03979492 290.36730957 C441.05148712 291.54353882 441.06317932 292.71976807 441.07522583 293.93164062 C440.98285421 301.79157219 440.98285421 301.79157219 438.22027588 305.23834229 C435.14548291 306.62678836 433.15597134 306.99296703 429.79223633 306.96203613 C428.69147263 306.96173401 427.59070892 306.96143188 426.45658875 306.96112061 C425.27933731 306.94047546 424.10208588 306.91983032 422.88916016 306.89855957 C421.06859856 306.89006989 421.06859856 306.89006989 419.21125793 306.88140869 C415.33916596 306.85903899 411.46800317 306.80883839 407.59619141 306.75793457 C404.96925166 306.73787048 402.34229738 306.71961956 399.71533203 306.70324707 C393.27946875 306.65917203 386.84414647 306.59225249 380.40869141 306.50793457 C380.25940186 307.76565674 380.1101123 309.02337891 379.95629883 310.31921387 C377.8592922 327.98590062 367.37139165 342.32167837 353.97119141 353.38293457 C338.9618366 364.28195369 320.63888214 368.91713282 302.296875 366.19445801 C289.07699871 363.78524261 277.51244094 358.39923416 267.40869141 349.50793457 C266.28333984 348.5411377 266.28333984 348.5411377 265.13525391 347.55480957 C254.29939123 337.56954363 248.7794069 324.60660035 245.40869141 310.50793457 C245.40869141 309.18793457 245.40869141 307.86793457 245.40869141 306.50793457 C205.14869141 306.50793457 164.88869141 306.50793457 123.40869141 306.50793457 C122.41869141 311.12793457 121.42869141 315.74793457 120.40869141 320.50793457 C114.64847898 338.45321175 102.04478225 351.10834998 85.75244141 359.94934082 C69.24112744 368.08359108 50.68400132 368.82100702 33.3359375 363.19250488 C14.48833016 356.49771251 1.39975807 343.8299647 -7.11474609 325.98449707 C-9.85920505 319.52267572 -11.66798594 313.53669109 -11.59130859 306.50793457 C-12.26924973 306.51681702 -12.94719086 306.52569946 -13.64567566 306.53485107 C-20.70209318 306.62334947 -27.75835304 306.68367963 -34.81518555 306.72766113 C-37.44871423 306.74777555 -40.08219826 306.77507061 -42.71557617 306.80969238 C-46.50108866 306.85821545 -50.2860106 306.8809057 -54.07177734 306.89855957 C-55.24902878 306.91920471 -56.42628021 306.93984985 -57.63920593 306.96112061 C-59.29035149 306.96157379 -59.29035149 306.96157379 -60.97485352 306.96203613 C-61.94081955 306.97091858 -62.90678558 306.97980103 -63.90202332 306.98895264 C-67.61573721 306.32470051 -69.0212252 305.29467737 -71.59130859 302.50793457 C-72.34931427 299.3088191 -72.26568738 296.15737029 -72.22622681 292.88244629 C-72.23402676 291.89519216 -72.24182671 290.90793802 -72.24986303 289.8907671 C-72.26985382 286.57267581 -72.2539897 283.25572247 -72.23828125 279.93762207 C-72.24505453 277.56243722 -72.25395602 275.18725762 -72.26483154 272.81208801 C-72.28530053 267.02256494 -72.28225244 261.23340506 -72.26776834 255.44387072 C-72.25647495 250.73437352 -72.25494563 246.02496706 -72.26038742 241.31546021 C-72.26115359 240.64505406 -72.26191975 239.97464791 -72.26270913 239.28392643 C-72.2643078 237.92189031 -72.26592887 236.55985422 -72.26757209 235.19781816 C-72.28183755 222.41806553 -72.26542903 209.63849206 -72.23857026 196.85876882 C-72.2162715 185.91051653 -72.22007682 174.96252962 -72.24316406 164.01428223 C-72.26997866 151.29258482 -72.28042121 138.571045 -72.26510274 125.84932327 C-72.26351009 124.48986056 -72.26193823 123.13039782 -72.26038742 121.77093506 C-72.25961604 121.10212476 -72.25884467 120.43331446 -72.25804991 119.74423718 C-72.25374678 115.04846727 -72.26099026 110.35279781 -72.27278519 105.65704346 C-72.28727925 99.32037973 -72.27711721 92.98421417 -72.2483139 86.64760399 C-72.2417273 84.32734184 -72.24355895 82.00703747 -72.25462723 79.68679237 C-72.32152892 64.23126333 -72.02014031 52.12268959 -60.68896484 40.41027832 C-50.32048236 31.00720389 -39.03040748 30.05803385 -25.46630859 30.32043457 C-24.11476113 30.33552025 -22.76319724 30.34920174 -21.41162109 30.3614502 C-18.13775488 30.39652733 -14.8647518 30.4456836 -11.59130859 30.50793457 C-11.61225586 29.74126465 -11.63320313 28.97459473 -11.65478516 28.18469238 C-11.73796018 24.70923997 -11.78997434 21.23399694 -11.84130859 17.75793457 C-11.87482422 16.55137207 -11.90833984 15.34480957 -11.94287109 14.10168457 C-11.95576172 12.94152832 -11.96865234 11.78137207 -11.98193359 10.58605957 C-12.00288086 9.51774902 -12.02382813 8.44943848 -12.04541016 7.34875488 C-10.94782958 0.48238519 -6.05408128 -0.07532909 0 0 Z M3.40869141 16.50793457 C3.40869141 21.12793457 3.40869141 25.74793457 3.40869141 30.50793457 C18.25869141 30.50793457 33.10869141 30.50793457 48.40869141 30.50793457 C48.40869141 25.88793457 48.40869141 21.26793457 48.40869141 16.50793457 C33.55869141 16.50793457 18.70869141 16.50793457 3.40869141 16.50793457 Z M63.40869141 16.50793457 C63.40869141 21.12793457 63.40869141 25.74793457 63.40869141 30.50793457 C78.25869141 30.50793457 93.10869141 30.50793457 108.40869141 30.50793457 C108.40869141 25.88793457 108.40869141 21.26793457 108.40869141 16.50793457 C93.55869141 16.50793457 78.70869141 16.50793457 63.40869141 16.50793457 Z M123.40869141 16.50793457 C123.40869141 21.12793457 123.40869141 25.74793457 123.40869141 30.50793457 C138.58869141 30.50793457 153.76869141 30.50793457 169.40869141 30.50793457 C169.40869141 25.88793457 169.40869141 21.26793457 169.40869141 16.50793457 C154.22869141 16.50793457 139.04869141 16.50793457 123.40869141 16.50793457 Z " fill="#010000" transform="translate(71.59130859375,72.4920654296875)"/>
<path d="M0 0 C44.06133381 -0.02202541 88.12266245 -0.04049726 132.18400019 -0.05106533 C137.3800724 -0.05231611 142.5761446 -0.05361042 147.7722168 -0.05493164 C148.8067072 -0.05519395 149.8411976 -0.05545626 150.90703619 -0.05572652 C167.68053206 -0.06008363 184.45402453 -0.0679714 201.22751837 -0.0771528 C218.42518171 -0.0864882 235.62284325 -0.09205537 252.82050902 -0.09408849 C263.4413789 -0.09546396 274.06223915 -0.0998158 284.68310607 -0.10791647 C291.95582059 -0.11318253 299.22853009 -0.11480461 306.50124639 -0.11350138 C310.70380487 -0.11285778 314.90634646 -0.11387796 319.10890198 -0.11920547 C322.94982447 -0.12403929 326.79071855 -0.12433877 330.63164229 -0.12089889 C332.02734456 -0.12047318 333.42304853 -0.12176907 334.81874739 -0.12488318 C336.70360817 -0.12884701 338.58847956 -0.12615644 340.47334194 -0.12304783 C342.04937117 -0.12361741 342.04937117 -0.12361741 343.65723938 -0.1241985 C346 0 346 0 347 1 C347.0950257 3.4949641 347.12556258 5.96202262 347.11352539 8.45727539 C347.11370619 9.64691847 347.11370619 9.64691847 347.11389065 10.86059475 C347.1131415 13.43964333 347.10551321 16.01862052 347.09765625 18.59765625 C347.09618684 20.18518031 347.09516612 21.77270485 347.09460449 23.36022949 C347.08935154 29.26099369 347.07539046 35.16174754 347.0625 41.0625 C347.041875 54.241875 347.02125 67.42125 347 81 C312.02 81 277.04 81 241 81 C240.5625 50.6875 240.5625 50.6875 240.43188477 41.11987305 C240.39376934 38.62548249 240.35530085 36.13109728 240.31640625 33.63671875 C240.2916925 31.68409119 240.2916925 31.68409119 240.26647949 29.6920166 C240.24629761 28.45391235 240.22611572 27.21580811 240.20532227 25.94018555 C240.18977798 24.86318893 240.1742337 23.78619232 240.15821838 22.67655945 C240.11021253 19.8978121 240.11021253 19.8978121 239 17 C237.56344146 16.91868537 236.1255517 16.86066441 234.6875 16.8125 C233.88699219 16.77769531 233.08648437 16.74289063 232.26171875 16.70703125 C229.98252595 16.82223865 229.98252595 16.82223865 228.38566589 18.14704895 C226.42421054 20.76996171 226.6011961 22.68397795 226.56762695 25.94018555 C226.54768677 27.17828979 226.52774658 28.41639404 226.50720215 29.6920166 C226.50095825 30.99376831 226.49471436 32.29552002 226.48828125 33.63671875 C226.46332581 35.43091248 226.46332581 35.43091248 226.43786621 37.26135254 C226.37995998 41.7365555 226.34778823 46.21206154 226.3125 50.6875 C226.1578125 65.6921875 226.1578125 65.6921875 226 81 C191.02 81 156.04 81 120 81 C119.625 50.125 119.625 50.125 119.52197266 40.37158203 C119.48678275 37.83364792 119.45086331 35.29572377 119.4140625 32.7578125 C119.4057692 31.7653804 119.4057692 31.7653804 119.39730835 30.75289917 C119.38030154 28.80798363 119.34984701 26.86319987 119.31884766 24.91845703 C119.30552399 23.82147491 119.29220032 22.7244928 119.2784729 21.5942688 C119.25718157 18.8387819 119.25718157 18.8387819 117 17 C115.08993694 16.6823754 115.08993694 16.6823754 113 16.75 C112.29875 16.74484375 111.5975 16.7396875 110.875 16.734375 C108.7564331 16.84294485 108.7564331 16.84294485 107 19 C106.66767316 21.71034638 106.66767316 21.71034638 106.68115234 24.91845703 C106.66109131 26.17698486 106.64103027 27.4355127 106.62036133 28.73217773 C106.60862764 30.07405375 106.59715099 31.41593204 106.5859375 32.7578125 C106.56829346 33.97460693 106.55064941 35.19140137 106.5324707 36.44506836 C106.4692459 41.00490937 106.42316847 45.56497509 106.375 50.125 C106.25125 60.31375 106.1275 70.5025 106 81 C71.02 81 36.04 81 0 81 C0 54.27 0 27.54 0 0 Z " fill="#00CDF7" transform="translate(15,163)"/>
<path d="M0 0 C56.74967371 -0.04517911 113.49934312 -0.08100103 170.24903123 -0.10213066 C176.9433646 -0.10463218 183.63769794 -0.10721849 190.33203125 -0.10986328 C190.99820805 -0.1101248 191.66438486 -0.11038632 192.35074884 -0.11065576 C213.95460232 -0.11918281 235.55844536 -0.13420868 257.16229251 -0.15259444 C279.98650979 -0.17198357 302.81072249 -0.18398934 325.63494802 -0.18817699 C339.31294533 -0.19092615 352.99091267 -0.19962038 366.66890076 -0.21583293 C376.03851099 -0.22637546 385.40810564 -0.22960685 394.77772138 -0.22700275 C400.18974962 -0.22571719 405.60172536 -0.22773759 411.01374435 -0.23841095 C415.96324616 -0.24810127 420.91265985 -0.24866251 425.8621656 -0.24179779 C427.65765062 -0.24094862 429.453141 -0.24352132 431.24861535 -0.24976636 C433.68000671 -0.25773505 436.11107551 -0.25350149 438.5424614 -0.24609566 C439.24749141 -0.25134968 439.95252142 -0.25660371 440.67891598 -0.26201695 C444.27041363 -0.23711727 447.0201222 -0.10546951 450 2 C452.04514127 5.06771191 452.24827274 5.65568048 452.22705078 9.10424805 C452.22689972 9.92487228 452.22674866 10.74549652 452.22659302 11.59098816 C452.21627045 12.47232925 452.20594788 13.35367035 452.1953125 14.26171875 C452.19106766 15.62040825 452.19106766 15.62040825 452.18673706 17.00654602 C452.17553964 19.90033158 452.15043589 22.79380794 452.125 25.6875 C452.11496963 27.64908407 452.10584388 29.610673 452.09765625 31.57226562 C452.07560173 36.3816296 452.04107489 41.19076237 452 46 C450.27351227 46.00879936 450.27351227 46.00879936 448.512146 46.01777649 C437.62580221 46.07517373 426.73965492 46.14802335 415.85351181 46.23571491 C410.25782482 46.2803012 404.66220867 46.31958291 399.06640625 46.34643555 C393.65866761 46.37258599 388.25120332 46.41307052 382.84363556 46.46318626 C380.78818443 46.47977591 378.73268593 46.49133909 376.67717743 46.49761391 C363.1246609 46.54314287 350.50637375 46.8468518 338.375 53.625 C337.4315271 54.14114868 337.4315271 54.14114868 336.46899414 54.66772461 C327.96761195 59.50129002 318.45799392 67.08401217 314 76 C295.08508885 76.21035161 276.1704154 76.36900232 257.25457668 76.46630955 C248.47132173 76.51269462 239.68879399 76.5759184 230.90600586 76.67895508 C223.24980924 76.76873206 215.59413928 76.82674039 207.93743092 76.84679645 C203.88386232 76.85851887 199.83180021 76.88601218 195.77871513 76.95157051 C191.96070606 77.01282413 188.14481829 77.0314742 184.32636452 77.01796913 C182.92787503 77.02043818 181.52931212 77.03825202 180.13124847 77.07284927 C169.56551393 77.32141272 169.56551393 77.32141272 165.65176582 74.01791191 C163.88126331 71.75537353 162.43169958 69.48575908 161 67 C151.36300759 56.28679523 136.4365999 48.35941726 122 47 C118.00243588 46.83760932 114.00661635 46.81531625 110.00610352 46.79467773 C108.81514572 46.78477814 107.62418793 46.77487854 106.3971405 46.76467896 C103.14973714 46.73860301 99.90233847 46.7166953 96.65489316 46.69667697 C93.25427262 46.67471678 89.85369531 46.64737747 86.45310974 46.62062073 C80.02182693 46.57082884 73.59051994 46.52584028 67.15919012 46.48259836 C59.83386656 46.43311011 52.50858641 46.37823519 45.18330491 46.32291877 C30.12224238 46.2093062 15.06113861 46.1031335 0 46 C0 30.82 0 15.64 0 0 Z " fill="#FDCB36" transform="translate(15,258)"/>
<path d="M0 0 C1.09631811 -0.00445784 2.19263623 -0.00891569 3.3221761 -0.01350862 C4.53654217 -0.01332426 5.75090824 -0.01313989 7.00207329 -0.01294994 C8.2844566 -0.01662663 9.56683992 -0.02030332 10.88808334 -0.02409142 C14.45961703 -0.03412814 18.03113392 -0.03783091 21.60267973 -0.04048073 C25.45014825 -0.04437893 29.2976034 -0.0539577 33.1450634 -0.0626936 C42.44356778 -0.08247335 51.74207328 -0.09252683 61.04059345 -0.10142139 C65.41784888 -0.10580244 69.79510309 -0.11116978 74.17235756 -0.11641026 C88.72131728 -0.13342523 103.27027624 -0.14791924 117.81924438 -0.155159 C121.5964044 -0.15706894 125.37356442 -0.15898927 129.15072441 -0.16094494 C130.08953858 -0.16142868 131.02835274 -0.16191242 131.99561583 -0.16241082 C147.20262532 -0.17071047 162.40955613 -0.19604509 177.61653127 -0.22852562 C193.22436608 -0.26159084 208.83216091 -0.27960733 224.44003093 -0.28280324 C233.20518804 -0.284969 241.97023047 -0.29372716 250.73535347 -0.31926441 C258.20070007 -0.34096422 265.66590415 -0.34902546 273.13127871 -0.33929763 C276.93989627 -0.3347506 280.74821974 -0.33666221 284.55679703 -0.35605907 C288.68793295 -0.37691678 292.8184157 -0.36671287 296.94958305 -0.35352612 C298.1505648 -0.36449536 299.35154654 -0.37546461 300.58892167 -0.38676625 C308.34720793 -0.32689652 313.75247212 0.67499181 319.84506035 5.81000233 C326.57167636 14.12402034 326.8567791 18.6389231 326.8567791 30.13422108 C212.3467791 30.13422108 97.8367791 30.13422108 -20.1432209 30.13422108 C-20.1432209 12.9576101 -20.1432209 12.9576101 -15.1432209 7.13422108 C-10.33259118 2.79269674 -6.5474751 0.01230367 0 0 Z " fill="#FE4336" transform="translate(35.14322090148926,118.86577892303467)"/>
<path d="M0 0 C44.06133202 -0.02286448 88.12266341 -0.04049726 132.18400019 -0.05106533 C137.3800724 -0.05231611 142.5761446 -0.05361042 147.7722168 -0.05493164 C148.8067072 -0.05519395 149.8411976 -0.05545626 150.90703619 -0.05572652 C167.68053206 -0.06008363 184.45402453 -0.0679714 201.22751837 -0.0771528 C218.42518171 -0.0864882 235.62284325 -0.09205537 252.82050902 -0.09408849 C263.4413789 -0.09546396 274.06223915 -0.0998158 284.68310607 -0.10791647 C291.95582059 -0.11318253 299.22853009 -0.11480461 306.50124639 -0.11350138 C310.70380487 -0.11285778 314.90634646 -0.11387796 319.10890198 -0.11920547 C322.94982447 -0.12403929 326.79071855 -0.12433877 330.63164229 -0.12089889 C332.02734456 -0.12047318 333.42304853 -0.12176907 334.81874739 -0.12488318 C336.70360817 -0.12884701 338.58847956 -0.12615644 340.47334194 -0.12304783 C342.04937117 -0.12361741 342.04937117 -0.12361741 343.65723938 -0.1241985 C346 0 346 0 347 1 C347.0950257 3.4949641 347.12556258 5.96202262 347.11352539 8.45727539 C347.11370619 9.64691847 347.11370619 9.64691847 347.11389065 10.86059475 C347.1131415 13.43964333 347.10551321 16.01862052 347.09765625 18.59765625 C347.09618684 20.18518031 347.09516612 21.77270485 347.09460449 23.36022949 C347.08935154 29.26099369 347.07539046 35.16174754 347.0625 41.0625 C347.041875 54.241875 347.02125 67.42125 347 81 C312.02 81 277.04 81 241 81 C240.5625 50.6875 240.5625 50.6875 240.43188477 41.11987305 C240.39376934 38.62548249 240.35530085 36.13109728 240.31640625 33.63671875 C240.2916925 31.68409119 240.2916925 31.68409119 240.26647949 29.6920166 C240.24629761 28.45391235 240.22611572 27.21580811 240.20532227 25.94018555 C240.18977798 24.86318893 240.1742337 23.78619232 240.15821838 22.67655945 C240.11021253 19.8978121 240.11021253 19.8978121 239 17 C236.69 16.67 234.38 16.34 232 16 C232.66 15.67 233.32 15.34 234 15 C234 10.38 234 5.76 234 1 C156.78 1 79.56 1 0 1 C0 0.67 0 0.34 0 0 Z " fill="#00ACD1" transform="translate(15,163)"/>
<path d="M0 0 C37.29 0 74.58 0 113 0 C113 4.62 113 9.24 113 14 C111.01141648 15.35030121 109.01102458 16.68335353 107 18 C106.01975504 22.61816774 106.16281649 27.2478184 106.1953125 31.953125 C106.18169678 33.16790527 106.16808105 34.38268555 106.15405273 35.63427734 C106.11191015 40.17266623 106.12157241 44.71141674 106.125 49.25 C106.08375 59.3975 106.0425 69.545 106 80 C71.02 80 36.04 80 0 80 C0 53.6 0 27.2 0 0 Z " fill="#5BE0FC" transform="translate(15,164)"/>
<path d="M0 0 C11.15741833 6.79496828 18.02562877 15.48465259 21.16796875 28.3203125 C22.5829463 39.68782875 19.14267434 50.31499642 12.16796875 59.3203125 C3.67002302 67.967345 -5.4847469 71.6512859 -17.45703125 71.8203125 C-24.00813263 71.74164207 -29.30977237 70.96049539 -34.83203125 67.3203125 C-35.52554688 66.87300781 -36.2190625 66.42570312 -36.93359375 65.96484375 C-45.60027487 59.91115076 -51.01404071 52.61262989 -53.83203125 42.3203125 C-55.11322725 30.12913824 -53.17093973 20.22626407 -45.83203125 10.3203125 C-34.41833835 -2.40351246 -15.9552322 -7.85403857 0 0 Z " fill="#020202" transform="translate(143.83203125,336.6796875)"/>
<path d="M0 0 C8.00837812 5.49714674 14.11341194 13.58553616 16.3515625 23.0859375 C18.31493433 34.77929364 15.97127088 45.37266175 9.17578125 55.0078125 C3.5745703 61.94541195 -4.27365396 67.17863681 -13.20703125 68.71484375 C-26.20520807 69.50169497 -35.86296014 68.02913487 -46.20703125 59.71484375 C-54.28244249 52.07012111 -58.16360237 42.34268868 -58.51953125 31.33984375 C-58.2445431 20.26393204 -54.01907829 11.95542882 -46.51171875 3.89453125 C-33.82599486 -7.84713877 -14.56041894 -8.47854484 0 0 Z " fill="#010101" transform="translate(405.20703125,339.28515625)"/>
<path d="M0 0 C0.89976563 -0.020625 1.79953125 -0.04125 2.7265625 -0.0625 C16.96872322 -0.1443515 29.05921004 5.63546816 39.26171875 15.390625 C49.58864213 26.69003892 54.77228669 40.43734236 54.2578125 55.734375 C52.61212687 70.84781445 45.87360374 82.92796652 34.875 93.25 C21.33170696 103.88534874 6.66208479 106.06543003 -10.125 104.25 C-14.81561687 103.33931598 -18.94623528 101.54923299 -23.125 99.25 C-23.93839844 98.80398438 -24.75179687 98.35796875 -25.58984375 97.8984375 C-37.50321037 90.60786442 -46.45301387 79.56495252 -50.0625 66 C-52.86896729 51.33620843 -51.72011866 37.59362228 -44 24.5625 C-33.28725916 9.04594063 -18.88501769 0.10550289 0 0 Z M-29.125 29.25 C-35.57197542 39.33259854 -37.2070348 48.30942774 -36.125 60.25 C-33.7065652 69.99452267 -27.99876407 78.1974842 -19.71875 83.91015625 C-17.55099093 85.14939185 -15.41133782 86.24868417 -13.125 87.25 C-12.37992188 87.61351562 -11.63484375 87.97703125 -10.8671875 88.3515625 C-2.31977979 91.15199523 9.2162815 90.18239892 17.3828125 86.6328125 C27.67699957 80.92099083 33.93057762 73.41874666 37.75 62.3125 C40.56503019 51.52436034 38.71420822 42.554998 33.58984375 32.8046875 C28.80630703 24.94316475 21.63511396 19.01009873 12.92578125 15.921875 C-2.63379608 12.49518191 -19.26903706 15.62558064 -29.125 29.25 Z " fill="#002530" transform="translate(126.125,318.75)"/>
<path d="M0 0 C10.69277894 8.05665471 18.42509222 19.58194809 21.12890625 32.81640625 C23.22163723 48.75335757 19.97312437 62.7862552 10.42578125 75.78125 C2.58708787 84.91249389 -6.02425693 90.36947547 -17.46484375 93.91015625 C-18.94984375 94.40515625 -18.94984375 94.40515625 -20.46484375 94.91015625 C-38.00255736 96.48063843 -51.55801184 94.28623959 -65.46484375 82.91015625 C-74.64381674 75.17568299 -80.66490178 64.1598903 -83.21484375 52.47265625 C-84.41110314 35.42595993 -81.55606624 20.77699915 -70.15234375 7.47265625 C-51.00141178 -12.22729064 -22.90105278 -15.51999404 0 0 Z M-59.40625 18.05078125 C-66.81110701 27.14066836 -69.49676418 36.20523017 -68.46484375 47.91015625 C-66.16674677 59.56676864 -61.13460659 67.8964557 -51.37890625 74.6953125 C-42.02720571 80.63077958 -31.08644785 81.56702671 -20.3203125 79.2265625 C-9.64210788 75.62733549 -1.86962303 68.84843978 3.6015625 58.98828125 C7.77790427 49.86892628 7.83238736 38.81606408 4.640625 29.390625 C0.06588248 19.12574338 -7.09129834 11.99102705 -17.3515625 7.671875 C-32.27820818 2.29166075 -48.81506083 6.37276986 -59.40625 18.05078125 Z " fill="#002530" transform="translate(415.46484375,328.08984375)"/>
<path d="M0 0 C23.1 0 46.2 0 70 0 C70 15.18 70 30.36 70 46 C58.8934375 46.0309375 58.8934375 46.0309375 47.5625 46.0625 C45.2222876 46.071604 42.8820752 46.08070801 40.47094727 46.09008789 C38.62776751 46.09300694 36.78458712 46.09555552 34.94140625 46.09765625 C33.97489136 46.10277222 33.00837646 46.10788818 32.01257324 46.11315918 C31.09907104 46.11328003 30.18556885 46.11340088 29.24438477 46.11352539 C28.44718521 46.115746 27.64998566 46.11796661 26.82862854 46.12025452 C25 46 25 46 24 45 C23.63272548 42.98150779 23.28180997 40.96003604 22.9375 38.9375 C20.08777697 25.53425721 13.91148976 15.0401533 4.3203125 5.35546875 C2 3 2 3 0 0 Z " fill="#828C90" transform="translate(427,318)"/>
<path d="M0 0 C22.44 0 44.88 0 68 0 C61.76923077 8.30769231 61.76923077 8.30769231 58.5 12.25 C50.68289906 22.37944426 48.17179106 32.31283577 45 45 C30.15 45 15.3 45 0 45 C0 30.15 0 15.3 0 0 Z " fill="#818C90" transform="translate(15,319)"/>
<path d="M0 0 C44.06133202 -0.02286448 88.12266341 -0.04049726 132.18400019 -0.05106533 C137.3800724 -0.05231611 142.5761446 -0.05361042 147.7722168 -0.05493164 C148.8067072 -0.05519395 149.8411976 -0.05545626 150.90703619 -0.05572652 C167.68053206 -0.06008363 184.45402453 -0.0679714 201.22751837 -0.0771528 C218.42518171 -0.0864882 235.62284325 -0.09205537 252.82050902 -0.09408849 C263.4413789 -0.09546396 274.06223915 -0.0998158 284.68310607 -0.10791647 C291.95582059 -0.11318253 299.22853009 -0.11480461 306.50124639 -0.11350138 C310.70380487 -0.11285778 314.90634646 -0.11387796 319.10890198 -0.11920547 C322.94982447 -0.12403929 326.79071855 -0.12433877 330.63164229 -0.12089889 C332.02734456 -0.12047318 333.42304853 -0.12176907 334.81874739 -0.12488318 C336.70360817 -0.12884701 338.58847956 -0.12615644 340.47334194 -0.12304783 C342.04937117 -0.12361741 342.04937117 -0.12361741 343.65723938 -0.1241985 C346 0 346 0 347 1 C347.0950257 3.4949641 347.12556258 5.96202262 347.11352539 8.45727539 C347.11370619 9.64691847 347.11370619 9.64691847 347.11389065 10.86059475 C347.1131415 13.43964333 347.10551321 16.01862052 347.09765625 18.59765625 C347.09618684 20.18518031 347.09516612 21.77270485 347.09460449 23.36022949 C347.08935154 29.26099369 347.07539046 35.16174754 347.0625 41.0625 C347.041875 54.241875 347.02125 67.42125 347 81 C312.02 81 277.04 81 241 81 C241 80.67 241 80.34 241 80 C268.39 80 295.78 80 324 80 C324 53.93 324 27.86 324 1 C217.08 1 110.16 1 0 1 C0 0.67 0 0.34 0 0 Z " fill="#027F9A" transform="translate(15,163)"/>
<path d="M0 0 C42.57 0 85.14 0 129 0 C127 14 127 14 126 15 C124.40577964 15.09597204 122.8072955 15.12187924 121.21018982 15.12025452 C120.17387421 15.12162918 119.13755859 15.12300385 118.06983948 15.12442017 C116.92329391 15.12082489 115.77674835 15.11722961 114.59545898 15.11352539 C113.39562378 15.11367142 112.19578857 15.11381744 110.95959473 15.1139679 C107.66014809 15.11338894 104.36076336 15.10835978 101.0613277 15.10139394 C97.61665703 15.09515973 94.17198562 15.09455655 90.72731018 15.09336853 C84.2001727 15.09025541 77.67305189 15.08204229 71.14592177 15.07201904 C63.71677984 15.0608573 56.28763714 15.0553473 48.85848892 15.05032361 C33.57231601 15.03985966 18.28616081 15.02206012 3 15 C2.01 10.05 1.02 5.1 0 0 Z " fill="#F64135" transform="translate(191,349)"/>
<path d="M0 0 C6.58873879 2.34122319 10.71267849 7.24104485 13.9609375 13.29296875 C16.50442596 19.91942552 15.8199579 25.89300539 13 32.3125 C9.93867526 37.82113019 5.57914939 41.21042531 0 44 C-8.19407143 44.80016272 -15.47653785 45.19245767 -22.1953125 39.85546875 C-28.20415712 33.67754408 -30.4487721 27.45954821 -30.3359375 18.91796875 C-29.6791982 13.21350063 -27.18182974 8.98158533 -22.95703125 5.14453125 C-15.5746926 -0.5166064 -9.14077732 -0.93823019 0 0 Z " fill="#FBFBFB" transform="translate(392,349)"/>
<path d="M0 0 C5.84202528 2.58881905 10.76519167 7.67882085 13.6171875 13.3828125 C14.78091187 29.15986261 14.78091187 29.15986261 9.6171875 35.3828125 C4.09677199 40.98171733 -0.67153006 43.65695406 -8.6953125 43.8203125 C-14.89764508 43.70130612 -18.85656065 42.67246482 -23.3828125 38.3828125 C-29.05224797 32.10416138 -30.73406991 27.37917075 -30.5859375 18.97265625 C-30.08882628 12.63448822 -28.17412859 8.77871717 -23.4453125 4.5078125 C-16.42805975 -1.30609633 -8.92206921 -2.31096219 0 0 Z " fill="#EDF5F7" transform="translate(135.3828125,349.6171875)"/>
<path d="M0 0 C56.74967275 -0.04574172 113.49934368 -0.08100103 170.24903123 -0.10213066 C176.9433646 -0.10463218 183.63769794 -0.10721849 190.33203125 -0.10986328 C190.99820805 -0.1101248 191.66438486 -0.11038632 192.35074884 -0.11065576 C213.95460232 -0.11918281 235.55844536 -0.13420868 257.16229251 -0.15259444 C279.98650979 -0.17198357 302.81072249 -0.18398934 325.63494802 -0.18817699 C339.31294533 -0.19092615 352.99091267 -0.19962038 366.66890076 -0.21583293 C376.03851099 -0.22637546 385.40810564 -0.22960685 394.77772138 -0.22700275 C400.18974962 -0.22571719 405.60172536 -0.22773759 411.01374435 -0.23841095 C415.96324616 -0.24810127 420.91265985 -0.24866251 425.8621656 -0.24179779 C427.65765062 -0.24094862 429.453141 -0.24352132 431.24861535 -0.24976636 C433.68000671 -0.25773505 436.11107551 -0.25350149 438.5424614 -0.24609566 C439.24749141 -0.25134968 439.95252142 -0.25660371 440.67891598 -0.26201695 C444.27041363 -0.23711727 447.0201222 -0.10546951 450 2 C458.14400309 14.21600463 452 31.31818964 452 46 C422.96 46 393.92 46 364 46 C364 45.67 364 45.34 364 45 C385.78 45 407.56 45 430 45 C429.855625 38.461875 429.71125 31.92375 429.5625 25.1875 C429.51939697 23.12653076 429.47629395 21.06556152 429.43188477 18.94213867 C429.39375965 17.30907341 429.35529033 15.67601612 429.31640625 14.04296875 C429.29993042 13.19464478 429.28345459 12.3463208 429.26647949 11.47229004 C429.24629761 10.66054321 429.22611572 9.84879639 429.20532227 9.01245117 C429.18977798 8.3085173 429.1742337 7.60458344 429.15821838 6.87931824 C429.05518396 4.77300917 429.05518396 4.77300917 428 2 C216.14 1.505 216.14 1.505 0 1 C0 0.67 0 0.34 0 0 Z " fill="#CF902C" transform="translate(15,258)"/>
<path d="M0 0 C23.1 0 46.2 0 70 0 C70 15.18 70 30.36 70 46 C55.15 46 40.3 46 25 46 C25 45.67 25 45.34 25 45 C32.59 45 40.18 45 48 45 C48 30.48 48 15.96 48 1 C32.16 1 16.32 1 0 1 C0 0.67 0 0.34 0 0 Z " fill="#646C70" transform="translate(427,318)"/>
<path d="M0 0 C17.07037359 -0.80017376 17.07037359 -0.80017376 23 4 C27.32619233 8.00867362 30.31801766 12.29994875 32 18 C32 21.96 32 25.92 32 30 C-82.51 30 -197.02 30 -315 30 C-315 29.67 -315 29.34 -315 29 C-208.08 29 -101.16 29 9 29 C8.73833532 17.53696319 8.73833532 17.53696319 5.0625 8.3125 C4.27552734 6.88357422 4.27552734 6.88357422 3.47265625 5.42578125 C2.35832669 3.59024105 1.19111301 1.78666952 0 0 Z " fill="#D10C2D" transform="translate(330,119)"/>
<path d="M0 0 C0 14.52 0 29.04 0 44 C-7.31153637 44 -9.69881493 43.474887 -15 39 C-20.69842272 32.77120461 -22.35062524 27.96048237 -22.203125 19.58984375 C-21.70601378 13.25167572 -19.79131609 9.39590467 -15.0625 5.125 C-9.61383867 0.61069485 -7.51093402 0 0 0 Z " fill="#FCFCFC" transform="translate(127,349)"/>
<path d="M0 0 C7.76988443 0 10.45635259 0.96853741 16 6 C20.74389751 11.57019113 22.9796056 16.91069654 22.51171875 24.26171875 C21.22619556 31.1407398 18.38602427 36.29860165 12.8125 40.5625 C7.86591973 43.90120523 6.72637273 44 0 44 C0 29.48 0 14.96 0 0 Z " fill="#EBF3F5" transform="translate(385,349)"/>
</svg>
