<?xml version="1.0" encoding="UTF-8"?>
<svg version="1.1" xmlns="http://www.w3.org/2000/svg" width="512" height="512">
<path d="M0 0 C3.62335444 0.24152565 7.24715464 0.47619599 10.87089205 0.7118926 C18.7591115 1.2262959 26.64673164 1.74949968 34.53424311 2.27463198 C39.46681994 2.60299537 44.39951858 2.92950233 49.33224154 3.25566244 C63.01742453 4.16085049 76.70246731 5.06809235 90.38696718 5.98355627 C91.25916754 6.04190225 92.1313679 6.10024822 93.02999857 6.16036226 C94.79765974 6.27861654 96.56532088 6.39687119 98.332982 6.5151262 C99.21030219 6.57381522 100.08762238 6.63250423 100.99152803 6.69297171 C101.8699291 6.75173476 102.74833017 6.81049781 103.65334946 6.87104157 C117.91627427 7.82479413 132.18015794 8.76330505 146.44452113 9.69527337 C161.12484046 10.65462974 175.8042928 11.62642694 190.48295879 12.61076331 C198.71082705 13.16223184 206.93896784 13.70843733 215.16808748 14.24093771 C222.16573675 14.69381536 229.16251207 15.15811023 236.15841991 15.63716671 C239.72377086 15.88097279 243.289262 16.11948683 246.85591936 16.34344625 C250.72823165 16.5867546 254.59850601 16.8559223 258.46894503 17.12748098 C259.58704105 17.19364858 260.70513707 17.25981618 261.85711479 17.32798886 C270.12152277 17.94085237 278.30939443 19.32017576 284.23859835 25.55527639 C286.26031038 28.18519149 287.55329496 30.80308773 288.80109835 33.86777639 C290.48970484 37.96573606 292.53732416 40.26739606 295.75422335 43.25058889 C300.6356186 48.15006339 304.69754308 53.85882221 308.86359835 59.36777639 C309.29076143 59.92884085 309.71792452 60.4899053 310.15803194 61.06797171 C338.97870736 99.18745715 357.05420968 146.32164633 350.43098116 194.51572561 C349.21190008 202.1906673 347.78799225 209.83624363 345.86359835 217.36777639 C346.96832491 217.20922171 348.07305147 217.05066702 349.2112546 216.88730764 C368.34100654 214.52182327 390.95402938 215.68671639 407.3050046 227.06699514 C412.25599466 231.15001199 414.49396866 234.16431913 415.23859835 240.61777639 C414.27367973 250.26696256 408.70247814 257.23132572 401.48859835 263.30527639 C400.62234835 263.98590139 399.75609835 264.66652639 398.86359835 265.36777639 C399.52359835 266.00715139 400.18359835 266.64652639 400.86359835 267.30527639 C401.86554198 268.32420213 402.86525719 269.34532071 403.86359835 270.36777639 C404.47977022 270.97621389 405.0959421 271.58465139 405.73078585 272.21152639 C418.10714325 285.11761116 421.51217652 299.84483197 421.1721921 317.15683889 C420.55008089 331.51444279 413.74887729 344.58184327 403.3050046 354.33652639 C389.59269469 365.74516823 374.43002176 369.52261796 356.86359835 368.36777639 C343.23810741 366.46053092 332.42091524 360.04498794 322.86359835 350.36777639 C322.28867647 349.81476858 321.7137546 349.26176077 321.12141085 348.69199514 C311.96543083 339.13277249 309.49166024 325.84136055 306.86359835 313.36777639 C305.83287769 313.86386939 304.80215704 314.35996239 303.74020243 314.8710885 C290.92585994 320.65556478 279.61163304 321.33443373 265.70686007 321.16245413 C263.43822463 321.16047491 261.16958472 321.16159709 258.90095186 321.16555166 C252.79850413 321.16754375 246.69703773 321.12665631 240.59481621 321.07753396 C234.19676071 321.03349971 227.79867776 321.02964126 221.4004941 321.02135611 C210.67982163 321.00213579 199.95957396 320.95854139 189.23908663 320.89585257 C178.20655238 320.8314069 167.17411535 320.78195288 156.14143038 320.75229788 C155.45915042 320.75045881 154.77687046 320.74861975 154.07391535 320.74672496 C150.65045098 320.7375884 147.22698594 320.72874276 143.80352044 320.72004163 C115.48996856 320.64770451 87.17680268 320.52408858 58.86359835 320.36777639 C58.64208101 322.25653494 58.64208101 322.25653494 58.41608858 324.18345022 C56.95911509 336.60627551 49.28718654 347.5452257 40.19172335 355.78965139 C26.50625204 366.31085188 11.72252572 369.39052933 -5.13640165 368.36777639 C-18.70588424 366.56941123 -31.00389481 359.46498466 -40.13640165 349.36777639 C-46.86787241 340.40974223 -51.42380136 331.59123093 -52.13640165 320.36777639 C-53.11480009 320.40258108 -54.09319853 320.43738577 -55.1012454 320.47324514 C-65.46490095 320.68724393 -73.7631045 320.06641412 -82.13640165 313.36777639 C-88.64407244 306.97175682 -91.45704127 300.90096092 -91.54229397 291.79832399 C-91.53628392 290.82760772 -91.53027387 289.85689146 -91.52408171 288.85675955 C-91.52946724 287.81047797 -91.53485278 286.7641964 -91.54040152 285.68620932 C-91.55468824 282.18655281 -91.5475753 278.68727417 -91.54045439 275.18760061 C-91.54615772 272.67567023 -91.55312183 270.16374245 -91.56125212 267.65181875 C-91.57734223 261.53959567 -91.5792821 255.42751165 -91.57403921 249.31527381 C-91.56999242 244.34319219 -91.57144713 239.3711409 -91.57678747 234.39906073 C-91.57753589 233.69049471 -91.57828432 232.9819287 -91.57905542 232.25189099 C-91.58058697 230.81222723 -91.58212531 229.37256348 -91.58367039 227.93289973 C-91.59739259 214.43686 -91.59196082 200.94087825 -91.58048517 187.44483985 C-91.57056389 175.11911016 -91.58347478 162.79353082 -91.60741936 150.46782432 C-91.6318526 137.79443526 -91.64140721 125.12111609 -91.63476664 112.44770396 C-91.63128238 105.33964569 -91.63345318 98.23170285 -91.65101767 91.12366247 C-91.6673435 84.43409841 -91.66249236 77.74486564 -91.64371252 71.05529356 C-91.64003568 68.60643648 -91.64310854 66.15755806 -91.65359831 63.70872068 C-91.73339204 43.53271122 -89.79411607 28.72054641 -75.69890165 13.18027639 C-54.79441335 -6.86118258 -26.37071319 -1.7672423 0 0 Z M79.86359835 70.36777639 C76.89861823 75.04854656 76.55122437 78.7280313 77.06573153 84.10091543 C77.12332972 84.8414269 77.18092791 85.58193837 77.24027151 86.34488958 C77.42871583 88.68797526 77.64332509 91.02748587 77.86359835 93.36777639 C77.92870458 94.09777326 77.99381081 94.82777012 78.06088996 95.57988811 C78.53903512 100.93716655 79.07957838 106.2872365 79.62946749 111.63755178 C79.80725904 113.3937006 79.98473464 115.14988143 80.16192293 116.90609121 C80.63800236 121.61600562 81.11843079 126.32546688 81.59971595 131.03485179 C82.10411409 135.97795708 82.60440785 140.92147782 83.10516024 145.86495352 C84.05141084 155.20032888 85.0012858 164.53533165 85.9525041 173.870202 C87.03636547 184.50855776 88.11612389 195.14732874 89.19555914 205.78613436 C91.41371414 227.6471434 93.63749308 249.5075754 95.86359835 271.36777639 C112.03359835 271.36777639 128.20359835 271.36777639 144.86359835 271.36777639 C144.90098116 265.57859671 144.93836397 259.78941702 144.9768796 253.82480764 C145.00715741 250.15615813 145.03830401 246.48755725 145.07258272 242.81894827 C145.12690244 236.99662616 145.17801263 231.17440026 145.21003389 225.35190725 C145.23605302 220.65739885 145.27644565 215.96321358 145.32678461 211.26890516 C145.34346272 209.47840982 145.35497112 207.68785857 145.36121225 205.89729643 C145.37084312 203.38817021 145.39888963 200.8798724 145.4312253 198.37095022 C145.42907267 197.26180006 145.42907267 197.26180006 145.42687654 196.13024282 C145.5082166 191.66418388 146.33045852 189.02188695 148.86359835 185.36777639 C148.86359835 184.70777639 148.86359835 184.04777639 148.86359835 183.36777639 C159.01745432 179.51710415 169.40626577 178.80825559 179.7737546 182.38730764 C184.65536274 184.67755745 187.46112242 188.68294835 189.86359835 193.36777639 C190.67264967 196.08736988 191.0045723 198.57063014 191.06892061 201.40195608 C191.09883844 202.57271688 191.09883844 202.57271688 191.12936068 203.76712942 C191.14607317 204.59956167 191.16278566 205.43199392 191.1800046 206.28965139 C191.20078569 207.14963736 191.22156679 208.00962332 191.24297762 208.89566946 C191.30823573 211.63629237 191.36724752 214.37700914 191.42609835 217.11777639 C191.46930615 218.97846309 191.51292117 220.83914038 191.55695772 222.69980764 C191.66389276 227.25570162 191.76522686 231.81168979 191.86359835 236.36777639 C193.18581392 236.38965017 193.18581392 236.38965017 194.53474092 236.41196585 C197.85822595 236.47363697 201.18096553 236.54789472 204.50397921 236.63022757 C205.93225984 236.66313726 207.36065994 236.69127051 208.78913546 236.71421194 C221.03109115 236.91602601 230.93116625 238.70943897 241.86359835 244.36777639 C241.86724398 243.62719488 241.87088961 242.88661337 241.87464571 242.12358999 C241.91255635 235.13473611 241.96944394 228.14626476 242.04750109 221.15775156 C242.08696366 217.56506257 242.11915769 213.97261821 242.13459444 210.37973928 C242.14976974 206.91052974 242.1842289 203.44199277 242.23190737 199.97308302 C242.25390402 198.00956209 242.25607134 196.0458514 242.25794649 194.08220816 C242.27766512 192.88134069 242.29738375 191.68047323 242.31769991 190.44321585 C242.32658236 189.38842535 242.3354648 188.33363485 242.34461641 187.24688101 C242.99604812 183.63299789 244.34014842 181.99360367 246.86359835 179.36777639 C248.85767912 178.02560664 250.8566086 176.69056509 252.86359835 175.36777639 C253.08085995 173.29694713 253.08085995 173.29694713 251.59797335 171.89512014 C245.13349887 166.71590536 238.84131284 166.6769013 230.87238741 166.68198538 C224.43308253 166.64820421 224.43308253 166.64820421 221.28547335 165.09824514 C219.57998567 163.02261041 219.35042525 162.03146955 219.42609835 159.36777639 C219.42803194 158.34683889 219.42803194 158.34683889 219.4300046 157.30527639 C220.00206462 154.7490442 220.80287042 153.97894621 222.86359835 152.36777639 C234.48684591 149.93156521 248.05410247 150.22149951 258.19343233 156.66636038 C261.56173497 159.09710503 264.74186886 161.62555128 267.86359835 164.36777639 C270.48940053 163.48445653 270.48940053 163.48445653 272.86359835 161.36777639 C273.34951315 158.31500321 273.49729334 155.81882433 273.4312253 152.76548147 C273.43195543 151.88722204 273.43268557 151.00896261 273.43343782 150.10408926 C273.42995121 147.19786952 273.39103977 144.29324774 273.3518796 141.38730764 C273.34255528 139.37378201 273.33543737 137.36024503 273.330441 135.34670401 C273.31134122 130.04455185 273.26221442 124.74308348 273.2069211 119.44120169 C273.15579304 114.03205507 273.13294071 108.62279807 273.10773897 103.21347952 C273.05409884 92.59794455 272.96874974 81.98291731 272.86359835 71.36777639 C262.62459376 70.66378766 252.41277085 70.17847658 242.14924288 69.97886038 C240.76050917 69.94943314 239.37178149 69.91972018 237.98305941 69.88974905 C234.26136455 69.81029076 230.53959738 69.73495859 226.81779766 69.66059518 C222.87817664 69.58129821 218.93862734 69.49856838 214.99906588 69.41637564 C208.37745928 69.27876209 201.7558018 69.14385396 195.13410616 69.01059866 C187.55205095 68.85798456 179.97009307 68.7011151 172.3881737 68.54190534 C165.01676041 68.38721854 157.64528617 68.23563808 150.2737813 68.08538389 C147.1748145 68.02216728 144.07587147 67.95793533 140.97694445 67.8927989 C132.56501841 67.71673417 124.15313831 67.55747612 115.74034548 67.42876196 C113.15544911 67.38809865 110.57061808 67.34304558 107.98587465 67.29360723 C104.36814741 67.22729902 100.75074367 67.1813567 97.13264132 67.14145803 C96.07206074 67.11865743 95.01148016 67.09585682 93.91876078 67.07236528 C88.553779 67.03729061 84.32564108 67.02399991 79.86359835 70.36777639 Z " fill="#010100" transform="translate(91.1364016532898,72.63222360610962)"/>
<path d="M0 0 C0.73919678 0.00338379 1.47839355 0.00676758 2.23999023 0.01025391 C15.27198351 0.12669561 28.25573486 0.8933066 41.234375 2.04296875 C54.65109199 3.19319214 68.08484606 4.01426985 81.52612305 4.81430054 C87.93907451 5.19607283 94.35145258 5.58730731 100.7638588 5.97811317 C102.19786206 6.06549492 103.63187033 6.1527945 105.06588364 6.24001122 C117.59027824 7.00189964 130.11267136 7.79185777 142.63272095 8.62234497 C144.52262407 8.74768142 146.41257683 8.87227187 148.30258179 8.99606323 C150.88937188 9.16576581 153.47596095 9.33823677 156.0625 9.51171875 C156.7939473 9.55947449 157.52539459 9.60723022 158.27900696 9.65643311 C161.80842117 9.89699513 165.31437981 10.20668577 168.82788086 10.62060547 C174.10490102 11.22595676 179.38902712 11.51949323 184.69140625 11.80859375 C186.87695468 11.93291543 189.0625015 12.05726536 191.24804688 12.18164062 C194.63007273 12.3711894 198.012153 12.55970725 201.39428711 12.74731445 C214.11081369 13.45613524 226.79946788 14.2803474 239.48782349 15.38670349 C246.8080614 16.01326795 254.12952164 16.49461542 261.46484375 16.90625 C262.53485123 16.96655899 263.6048587 17.02686798 264.70729065 17.08900452 C269.06362003 17.3320259 273.42012826 17.57100396 277.77709961 17.80224609 C281.02757998 17.976196 284.2774412 18.15936015 287.52734375 18.34375 C288.49929184 18.39277466 289.47123993 18.44179932 290.47264099 18.49230957 C305.39501213 19.35664298 305.39501213 19.35664298 309.2288208 22.5773468 C310.85167304 24.55315986 310.85004946 25.60614044 310.79296875 28.13671875 C310.78547607 28.81951904 310.7779834 29.50231934 310.77026367 30.20581055 C310.74295166 31.06601807 310.71563965 31.92622559 310.6875 32.8125 C310.65340014 34.25219648 310.6205127 35.69192198 310.58857727 37.13166809 C310.55934677 38.44946762 310.53011627 39.76726715 310.5 41.125 C295.75658362 41.19415173 281.02221043 40.97669983 266.28125 40.72265625 C263.7685149 40.68015806 261.25577888 40.63771429 258.74304199 40.59532166 C253.4985975 40.50643796 248.25417573 40.41632841 243.00976562 40.32543945 C236.36534897 40.21030555 229.72086665 40.09942041 223.07636261 39.98943424 C217.8905502 39.90299021 212.70478449 39.81395494 207.51902771 39.72424126 C205.07321158 39.68230721 202.62738052 39.64123311 200.18153381 39.6011219 C185.48100866 39.3587551 170.79775244 38.95793022 156.10768127 38.34820557 C148.717265 38.04408251 141.33398323 37.87110922 133.9375 37.8125 C132.65166016 37.78349609 131.36582031 37.75449219 130.04101562 37.72460938 C119.94838695 37.65708278 112.55166696 39.52785936 105.00390625 46.41015625 C98.35440616 53.9923135 98.20195907 62.51681772 98.5 72.125 C98.80041847 76.43503922 99.25512482 80.7191575 99.7421875 85.01171875 C99.93483688 86.78455986 99.93483688 86.78455986 100.13137817 88.59321594 C100.53938917 92.33372786 100.95700773 96.07309175 101.375 99.8125 C101.64777323 102.29875823 101.91991331 104.78508601 102.19140625 107.27148438 C103.15524395 116.0736538 104.12307362 124.87533934 105.13720703 133.671875 C105.23139923 134.49605423 105.32559143 135.32023346 105.42263794 136.16938782 C105.59133545 137.64137513 105.76251448 139.11308169 105.9369812 140.58439636 C106.56905632 146.11140189 106.72026752 151.5693636 106.5 157.125 C90.25499253 156.47222304 74.08365701 155.03126031 57.89534378 153.57348251 C54.91392044 153.30545612 51.93229023 153.03976975 48.95066357 152.77401638 C39.86153568 151.96370504 30.77319473 151.14480303 21.68513489 150.32260895 C19.54381378 150.12896222 17.40246568 149.93561686 15.2611084 149.74237061 C7.53564666 149.04500327 -0.18942591 148.34350545 -7.91390991 147.63537598 C-10.25142833 147.42118292 -12.58901335 147.20771534 -14.92666626 146.99499512 C-18.14798993 146.70127842 -21.36896033 146.40396947 -24.58984375 146.10546875 C-25.52933868 146.02030502 -26.46883362 145.9351413 -27.4367981 145.84739685 C-28.30062103 145.76651321 -29.16444397 145.68562958 -30.05444336 145.60229492 C-31.16909218 145.49953499 -31.16909218 145.49953499 -32.30625916 145.3946991 C-34.73617463 145.09596463 -37.10556041 144.63162199 -39.5 144.125 C-39.57029141 129.9727962 -39.62288642 115.82061974 -39.65543652 101.66827679 C-39.67106244 95.09609084 -39.69224473 88.52402255 -39.72631836 81.9519043 C-39.75902114 75.60414798 -39.77687612 69.25650452 -39.78463173 62.90867043 C-39.79015563 60.4922896 -39.80094231 58.07591465 -39.81719017 55.65958214 C-39.83910925 52.26339967 -39.84196084 48.86767788 -39.84057617 45.47143555 C-39.851362 44.48240234 -39.86214783 43.49336914 -39.8732605 42.47436523 C-39.82172313 30.71874823 -36.68551474 19.94901948 -28.68359375 11.12109375 C-20.31659102 3.29498817 -11.33187594 -0.07693419 0 0 Z " fill="#7E7E7E" transform="translate(54.5,86.875)"/>
<path d="M0 0 C5.07357751 -0.04635423 10.079338 -0.00402115 15.13720703 0.45556641 C16.27128998 0.55653625 17.40537292 0.6575061 18.57382202 0.76153564 C20.39739731 0.92984894 20.39739731 0.92984894 22.2578125 1.1015625 C24.26229514 1.28126503 26.26677809 1.46096406 28.27127266 1.64053345 C30.41238548 1.83303894 32.55331981 2.02742849 34.69421387 2.22235107 C41.49437464 2.84121231 48.29563909 3.44775237 55.09687805 4.05463028 C56.67992863 4.19591916 58.26296687 4.33734646 59.84599304 4.47890854 C78.01465821 6.10319696 96.19001815 7.64619698 114.36696625 9.17461395 C116.75574424 9.37548303 119.14450615 9.5765424 121.53326416 9.77764893 C130.3553569 10.5202557 139.1775901 11.26116979 148 12 C150.39512977 32.96401652 152.63003487 53.93742085 154.6875 74.9375 C154.7957309 76.0380069 154.90396179 77.13851379 155.01547241 78.27236938 C155.32853783 81.46135335 155.63935823 84.65054692 155.94921875 87.83984375 C156.08650391 89.24135178 156.08650391 89.24135178 156.2265625 90.6711731 C156.91167247 97.77776564 157.4521142 104.87748459 158 112 C183.74 112 209.48 112 236 112 C236 81.97 236 51.94 236 21 C248 21 248 21 252 24 C252.38119757 26.90334843 252.50604243 29.42443383 252.45410156 32.3269043 C252.4545837 33.18962605 252.45506584 34.05234781 252.45556259 34.94121265 C252.45257512 37.7359666 252.42210791 40.52965554 252.390625 43.32421875 C252.38474441 45.04870083 252.38066336 46.77319002 252.37841797 48.49768066 C252.35744002 54.89439594 252.30159514 61.29095841 252.25 67.6875 C252.1675 81.980625 252.085 96.27375 252 111 C284.67 111 317.34 111 351 111 C354 124 354 124 354 130 C281.73 130 209.46 130 135 130 C133.35 124.72 131.7 119.44 130 114 C127.74397892 110.05196312 125.66921053 106.59627899 123 103 C121.8553125 101.39125 121.8553125 101.39125 120.6875 99.75 C110.64628456 89.47526793 96.74086626 82.72612624 82.3137207 82.53173828 C81.44706787 82.54188965 80.58041504 82.55204102 79.6875 82.5625 C78.77250732 82.57007324 77.85751465 82.57764648 76.91479492 82.58544922 C62.0580065 82.94470789 49.91404049 88.67759986 39.09765625 98.75 C31.17061744 107.25274553 25.98138964 118.57539164 24 130 C21.62374823 130.10883596 19.25256024 130.18766696 16.875 130.25 C16.20984375 130.28351563 15.5446875 130.31703125 14.859375 130.3515625 C9.70663395 130.45259664 6.86061313 129.37943527 3 126 C-0.82752186 120.38499646 -0.40464004 114.83989021 -0.34057617 108.30322266 C-0.34101425 107.13191803 -0.34145233 105.9606134 -0.34190369 104.7538147 C-0.3398172 100.89039318 -0.31649178 97.02740803 -0.29296875 93.1640625 C-0.2873723 90.48220078 -0.28295483 87.80036308 -0.28010559 85.11849976 C-0.27079571 78.78624972 -0.24619641 72.45415577 -0.21605712 66.12197435 C-0.18248005 58.91038627 -0.16601882 51.69879059 -0.15097082 44.48714375 C-0.11964581 29.65801615 -0.066906 14.8290108 0 0 Z " fill="#FDCB6D" transform="translate(15,247)"/>
<path d="M0 0 C0.74636719 -0.00386719 1.49273437 -0.00773437 2.26171875 -0.01171875 C2.99003906 -0.01042969 3.71835937 -0.00914063 4.46875 -0.0078125 C5.12294922 -0.00668457 5.77714844 -0.00555664 6.45117188 -0.00439453 C8.86159523 0.14783669 11.13736603 0.63501882 13.5 1.125 C13.48889694 2.1735466 13.47779388 3.2220932 13.46635437 4.30241394 C13.36456137 14.2316648 13.28983578 24.16080843 13.24093914 34.09046459 C13.21495479 39.19424034 13.17976294 44.29759155 13.12280273 49.40112305 C13.06808197 54.3354383 13.03849574 59.26934775 13.02561378 64.20394325 C13.01644528 66.07724702 12.9985431 67.95053107 12.97134972 69.8236599 C12.77297787 84.06711856 13.99135376 95.83929082 23.62109375 107.1953125 C37.00708105 120.94308324 54.48968413 121.46050871 72.5 123.125 C101.14757359 125.77257359 101.14757359 125.77257359 103.5 128.125 C103.90982065 130.91895977 104.26018956 133.69395342 104.5625 136.5 C104.65192871 137.31259277 104.74135742 138.12518555 104.83349609 138.96240234 C105.46682095 145.03870196 105.69004222 151.01681935 105.5 157.125 C89.25499253 156.47222304 73.08365701 155.03126031 56.89534378 153.57348251 C53.91392044 153.30545612 50.93229023 153.03976975 47.95066357 152.77401638 C38.86153568 151.96370504 29.77319473 151.14480303 20.68513489 150.32260895 C18.54381378 150.12896222 16.40246568 149.93561686 14.2611084 149.74237061 C6.53564666 149.04500327 -1.18942591 148.34350545 -8.91390991 147.63537598 C-11.25142833 147.42118292 -13.58901335 147.20771534 -15.92666626 146.99499512 C-19.14798993 146.70127842 -22.36896033 146.40396947 -25.58984375 146.10546875 C-26.52933868 146.02030502 -27.46883362 145.9351413 -28.4367981 145.84739685 C-29.30062103 145.76651321 -30.16444397 145.68562958 -31.05444336 145.60229492 C-32.16909218 145.49953499 -32.16909218 145.49953499 -33.30625916 145.3946991 C-35.73617463 145.09596463 -38.10556041 144.63162199 -40.5 144.125 C-40.57029141 129.9727962 -40.62288642 115.82061974 -40.65543652 101.66827679 C-40.67106244 95.09609084 -40.69224473 88.52402255 -40.72631836 81.9519043 C-40.75902114 75.60414798 -40.77687612 69.25650452 -40.78463173 62.90867043 C-40.79015563 60.4922896 -40.80094231 58.07591465 -40.81719017 55.65958214 C-40.83910925 52.26339967 -40.84196084 48.86767788 -40.84057617 45.47143555 C-40.851362 44.48240234 -40.86214783 43.49336914 -40.8732605 42.47436523 C-40.82172313 30.71874823 -37.68551474 19.94901948 -29.68359375 11.12109375 C-20.92867659 2.93215103 -11.72329201 -0.06074245 0 0 Z " fill="#626262" transform="translate(55.5,86.875)"/>
<path d="M0 0 C9.09512109 6.51275635 13.75117463 14.75352388 17.25 25.25 C18.46302046 39.08457513 16.6087993 50.14170818 7.5 61.25 C-0.98957754 69.94979565 -11.15513478 74.33506349 -23.1875 74.625 C-36.55041974 74.29159382 -45.70940567 69.67112254 -55.0625 60.125 C-63.36702153 50.10230161 -64.99462159 38.82791608 -63.98925781 26.24121094 C-62.74265481 15.86642103 -55.63244961 7.03164459 -47.7109375 0.59765625 C-32.72242791 -9.7032119 -15.32697081 -9.42801902 0 0 Z " fill="#626262" transform="translate(117.75,350.75)"/>
<path d="M0 0 C6.63437084 0.55190607 10.5985832 5.42929794 15 10 C23.26323531 20.05360296 25.01622778 30.23792829 24.21142578 42.99072266 C23.00449524 54.46074384 15.87753425 62.97264817 7.44140625 70.23828125 C3.59939998 73.01067298 -0.49126236 74.62168124 -5 76 C-5.60199219 76.18949219 -6.20398438 76.37898438 -6.82421875 76.57421875 C-18.74517954 78.90704591 -29.21354109 76.80856553 -39.4921875 70.4609375 C-48.94655082 63.74420127 -54.59936476 54.27872415 -57 43 C-58.19289663 32.64516533 -58.19289663 32.64516533 -55.46484375 28.8828125 C-52.21617655 26.40126323 -48.82639328 24.92584755 -45.0625 23.375 C-44.35931641 23.0759375 -43.65613281 22.776875 -42.93164062 22.46875 C-39.30591409 20.93282836 -35.65761109 19.45830199 -32 18 C-31.71278076 18.7113208 -31.42556152 19.4226416 -31.12963867 20.15551758 C-29.82342682 23.37775247 -28.50561818 26.59511836 -27.1875 29.8125 C-26.73568359 30.93205078 -26.28386719 32.05160156 -25.81835938 33.20507812 C-25.15610352 34.81479492 -25.15610352 34.81479492 -24.48046875 36.45703125 C-24.07723389 37.44678955 -23.67399902 38.43654785 -23.25854492 39.45629883 C-22.05314577 41.89258472 -21.18204058 43.39574877 -19 45 C-15.24718995 44.93298553 -12.91125486 44.76887129 -10 42.3125 C-8.37986018 38.56592666 -9.46869267 35.45884648 -10.83642578 31.70336914 C-12.25079663 28.17358849 -13.72643913 24.67120575 -15.20507812 21.16796875 C-15.56150391 20.30558594 -15.91792969 19.44320313 -16.28515625 18.5546875 C-16.61394775 17.77593262 -16.94273926 16.99717773 -17.28149414 16.19482422 C-18 14 -18 14 -18 10 C-17.49025635 9.7326001 -16.9805127 9.4652002 -16.45532227 9.18969727 C-14.15670784 7.9825377 -11.85958995 6.77255777 -9.5625 5.5625 C-8.76005859 5.14162109 -7.95761719 4.72074219 -7.13085938 4.28710938 C-6.36708984 3.88427734 -5.60332031 3.48144531 -4.81640625 3.06640625 C-4.10943604 2.69459229 -3.40246582 2.32277832 -2.67407227 1.93969727 C-1.02071254 1.11087599 -1.02071254 1.11087599 0 0 Z " fill="#626262" transform="translate(472,348)"/>
<path d="M0 0 C0.99515625 -0.01224609 1.9903125 -0.02449219 3.015625 -0.03710938 C23.71108927 -0.07763574 41.42860255 8.10236454 56.15234375 22.37890625 C67.14119132 33.71460411 74.875 49.31998858 74.875 65.1875 C141.535 65.1875 208.195 65.1875 276.875 65.1875 C276.875 65.5175 276.875 65.8475 276.875 66.1875 C204.605 66.1875 132.335 66.1875 57.875 66.1875 C56.225 60.9075 54.575 55.6275 52.875 50.1875 C50.61897892 46.23946312 48.54421053 42.78377899 45.875 39.1875 C45.111875 38.115 44.34875 37.0425 43.5625 35.9375 C33.52128456 25.66276793 19.61586626 18.91362624 5.1887207 18.71923828 C4.32206787 18.72938965 3.45541504 18.73954102 2.5625 18.75 C1.64750732 18.75757324 0.73251465 18.76514648 -0.21020508 18.77294922 C-15.0669935 19.13220789 -27.21095951 24.86509986 -38.02734375 34.9375 C-45.95438256 43.44024553 -51.14361036 54.76289164 -53.125 66.1875 C-55.5627963 66.24147335 -57.99939685 66.28115616 -60.4375 66.3125 C-61.12779297 66.32925781 -61.81808594 66.34601563 -62.52929688 66.36328125 C-66.29635396 66.39967794 -67.90931704 66.33128864 -71.125 64.1875 C-69.64784257 48.30805759 -62.45678945 35.02728239 -52.125 23.1875 C-51.60550781 22.57261719 -51.08601563 21.95773437 -50.55078125 21.32421875 C-37.81533019 7.36975726 -18.49840933 0.01170785 0 0 Z " fill="#EBAF4D" transform="translate(92.125,310.8125)"/>
<path d="M0 0 C2.57188148 2.50016469 4.5663402 5.11853176 6.625 8.0625 C15.91257553 20.90918293 27.77662363 34.48123115 44 38 C43.73713292 39.77203338 43.46412312 41.54256185 43.1875 43.3125 C43.03667969 44.29863281 42.88585937 45.28476562 42.73046875 46.30078125 C37.15391964 74.54138023 23.5138147 101.24337603 8.07763672 125.28662109 C7.10998895 126.82512405 6.20854055 128.40479461 5.31640625 129.98828125 C4.88199219 130.65214844 4.44757813 131.31601562 4 132 C3.34 132 2.68 132 2 132 C0.47728939 123.46386856 -0.28549672 115.26495274 -0.22705078 106.6003418 C-0.22734283 105.43776855 -0.22763489 104.27519531 -0.22793579 103.07739258 C-0.22655698 99.28458853 -0.2110647 95.49198792 -0.1953125 91.69921875 C-0.19157721 89.04978605 -0.18863413 86.40036421 -0.18673706 83.75093079 C-0.18055858 77.52166083 -0.16419778 71.29246236 -0.14403808 65.06322366 C-0.12156495 57.96270465 -0.11065716 50.86218195 -0.10064721 43.76163614 C-0.07982765 29.17438748 -0.04472354 14.58719474 0 0 Z " fill="#FDCB6D" transform="translate(380,233)"/>
<path d="M0 0 C3.82932955 3.76137694 7.10386065 7.54898762 10.25 11.875 C10.72671143 12.52992432 11.20342285 13.18484863 11.69458008 13.85961914 C34.95119692 46.27476376 47.74405269 82.01575325 47 122 C35.43145796 120.1861171 26.12632151 109.69170771 19.4296875 100.62109375 C-0.2818752 72.58286353 -0.2818752 72.58286353 -0.22705078 58.46557617 C-0.22682419 56.51411934 -0.22682419 56.51411934 -0.22659302 54.52323914 C-0.21638124 53.11314743 -0.20594927 51.70305731 -0.1953125 50.29296875 C-0.19157959 48.84280086 -0.18873393 47.39263043 -0.18673706 45.94245911 C-0.17912249 42.13661666 -0.15949289 38.3309283 -0.1373291 34.52514648 C-0.11682363 30.63722823 -0.10772531 26.74928494 -0.09765625 22.86132812 C-0.07624478 15.24081538 -0.04213534 7.62042933 0 0 Z " fill="#82C5EC" transform="translate(380,134)"/>
<path d="M0 0 C6.74526178 3.71820526 10.73237624 8.18068349 14.6875 14.6875 C16.90924231 22.65963415 16.98823828 31.0124918 13.0625 38.44140625 C8.10866658 46.21125807 2.73548248 50.87217022 -6.25 53.5 C-14.77532535 54.82694458 -21.50848201 52.90849336 -28.4453125 47.921875 C-33.91403538 43.44196179 -37.85431843 38.59471467 -39.25 31.5 C-40.04828968 22.57485964 -39.24017037 14.76298421 -33.70703125 7.46484375 C-24.74762054 -2.19163782 -12.14476348 -5.63700343 0 0 Z " fill="#E3DFDF" transform="translate(106.25,360.5)"/>
<path d="M0 0 C-1.22089516 7.10623594 -8.04572856 11.48033185 -13.6015625 15.41845703 C-33.92397769 29.24463763 -56.78363537 39.59780836 -79 50 C-79.91249512 50.43538086 -80.82499023 50.87076172 -81.76513672 51.31933594 C-82.57354004 51.69606445 -83.38194336 52.07279297 -84.21484375 52.4609375 C-84.90570068 52.78626465 -85.59655762 53.1115918 -86.30834961 53.44677734 C-88 54 -88 54 -90 53 C-89.46632813 52.20980469 -88.93265625 51.41960937 -88.3828125 50.60546875 C-83.94646652 43.93430971 -79.82748676 37.13579594 -76.0625 30.0625 C-75.64693848 29.28213379 -75.23137695 28.50176758 -74.80322266 27.69775391 C-72.4486569 23.15272575 -70.3805377 18.57258039 -68.49609375 13.8125 C-68.0777124 12.77343506 -67.65933105 11.73437012 -67.22827148 10.66381836 C-66.42810574 8.64344358 -65.65891925 6.61043578 -64.92602539 4.56469727 C-62.2374872 -2.2217838 -62.2374872 -2.2217838 -58.6015625 -4.50830078 C-56.07900006 -5.5397958 -53.64181148 -6.3387417 -51 -7 C-50.34128906 -7.18973389 -49.68257813 -7.37946777 -49.00390625 -7.57495117 C-32.15644775 -11.14846789 -15.2684777 -6.84915755 0 0 Z " fill="#EBAE4C" transform="translate(490,313)"/>
<path d="M0 0 C7.46403969 -0.64904693 14.33216848 1.70309846 20.3125 6.25 C26.26965611 12.34569463 29.95948888 19.14489875 30.375 27.75 C30.1877396 36.03939377 26.88770209 43.24610932 21 49 C13.30493676 54.71951906 5.63841716 57.41263442 -4 56 C-12.69447379 52.98748812 -18.84932788 48.78613999 -23.2421875 40.71875 C-26.47089303 33.68239863 -27.59924426 26.6600929 -25.046875 19.22265625 C-22.8350172 14.4559627 -20.63328602 10.75492682 -16 8 C-15.34 8 -14.68 8 -14 8 C-13.71278076 8.7113208 -13.42556152 9.4226416 -13.12963867 10.15551758 C-11.82342682 13.37775247 -10.50561818 16.59511836 -9.1875 19.8125 C-8.73568359 20.93205078 -8.28386719 22.05160156 -7.81835938 23.20507812 C-7.37685547 24.27822266 -6.93535156 25.35136719 -6.48046875 26.45703125 C-6.07723389 27.44678955 -5.67399902 28.43654785 -5.25854492 29.45629883 C-4.05314577 31.89258472 -3.18204058 33.39574877 -1 35 C2.75281005 34.93298553 5.08874514 34.76887129 8 32.3125 C9.62013982 28.56592666 8.53130733 25.45884648 7.16357422 21.70336914 C5.74920337 18.17358849 4.27356087 14.67120575 2.79492188 11.16796875 C2.43849609 10.30558594 2.08207031 9.44320313 1.71484375 8.5546875 C1.38605225 7.77593262 1.05726074 6.99717773 0.71850586 6.19482422 C0 4 0 4 0 0 Z " fill="#E1DDDD" transform="translate(454,358)"/>
<path d="M0 0 C12 0 12 0 16 3 C16.38641078 5.89711981 16.51629389 8.41392407 16.4699707 11.31103516 C16.4732563 12.58212379 16.4732563 12.58212379 16.47660828 13.87889099 C16.4789218 16.68267713 16.45265403 19.48541621 16.42578125 22.2890625 C16.42085942 24.23293728 16.41755919 26.17681679 16.41581726 28.12069702 C16.40817283 32.19455087 16.38759599 36.26805393 16.35668945 40.34179688 C16.31706176 45.57560663 16.29907325 50.80918819 16.28938007 56.04313087 C16.27942828 61.02097263 16.25952056 65.99875801 16.23828125 70.9765625 C16.23318763 72.41075468 16.23318763 72.41075468 16.2279911 73.87392044 C16.21646965 76.56526734 16.19795851 79.25646598 16.17700195 81.94775391 C16.17431305 82.75295975 16.17162415 83.55816559 16.16885376 84.38777161 C16.11490145 89.88509855 16.11490145 89.88509855 15 91 C4.18645755 92.35128105 -6.77303027 92.13225632 -17.6484375 92.09765625 C-19.39962727 92.09578609 -21.15081757 92.09436502 -22.90200806 92.09336853 C-27.46225485 92.08959037 -32.02246867 92.07980151 -36.58270264 92.06866455 C-41.25565139 92.05834809 -45.92860559 92.05384921 -50.6015625 92.04882812 C-59.73438931 92.03817396 -68.86719189 92.02115564 -78 92 C-78 91.67 -78 91.34 -78 91 C-52.26 91 -26.52 91 0 91 C0 60.97 0 30.94 0 0 Z " fill="#E0A649" transform="translate(251,268)"/>
<path d="M0 0 C0 29.7 0 59.4 0 90 C-5.28 90 -10.56 90 -16 90 C-16.31718045 79.74217505 -16.57360722 69.4876393 -16.72537041 59.22600746 C-16.79823762 54.4601698 -16.89691511 49.69787818 -17.05615234 44.93408203 C-17.20907039 40.3301497 -17.29212903 35.72960977 -17.3282814 31.12333298 C-17.3540152 29.3726699 -17.40428008 27.62217891 -17.48022079 25.8729744 C-18.03558436 12.54206886 -18.03558436 12.54206886 -14.59128571 8.24077606 C-10.8911527 4.80378146 -5.22276771 0 0 0 Z " fill="#7A7A7A" transform="translate(365,253)"/>
<path d="M0 0 C4.57546947 4.08994303 7.34164514 8.56327496 10.25 13.9375 C10.72453613 14.81140381 11.19907227 15.68530762 11.68798828 16.58569336 C22.13170836 36.25277907 30.59619742 57.49718336 31 80 C11.18554743 65.24455659 3.14459653 37.59490084 -0.57421875 14.421875 C-0.94429423 11.44769043 -1.13420868 8.61782143 -1.125 5.625 C-1.12757813 4.77164063 -1.13015625 3.91828125 -1.1328125 3.0390625 C-1 1 -1 1 0 0 Z " fill="#AAD8FA" transform="translate(395,155)"/>
<path d="M0 0 C4.2329022 -0.09257866 8.46219877 -0.17197032 12.6953125 -0.21972656 C14.13065587 -0.23966189 15.56591997 -0.26682074 17.00097656 -0.30175781 C26.90966104 -0.53669175 35.65069551 -0.34000176 43.69140625 6.18359375 C44.61759766 7.29927734 44.61759766 7.29927734 45.5625 8.4375 C46.20316406 9.17871094 46.84382813 9.91992188 47.50390625 10.68359375 C49 13 49 13 50 18 C33.5 18 17 18 0 18 C0 12.06 0 6.12 0 0 Z " fill="#5F5F5F" transform="translate(282,325)"/>
</svg>
